G04 Layer: TopSilkscreenLayer*
G04 EasyEDA v6.5.42, 2024-06-07 13:56:55*
G04 7482dcffd15b4418b76771f7c21639d5,5b5938e4044e44979b54ac5d61ce4e13,10*
G04 Gerber Generator version 0.2*
G04 Scale: 100 percent, Rotated: No, Reflected: No *
G04 Dimensions in millimeters *
G04 leading zeros omitted , absolute positions ,4 integer and 5 decimal *
%FSLAX45Y45*%
%MOMM*%

%ADD10C,0.0001*%

%LPD*%
G36*
X2005990Y19419011D02*
G01*
X1994154Y19418960D01*
X1991360Y19417080D01*
X1995119Y19414185D01*
X2010206Y19409664D01*
X2032152Y19404838D01*
X2089556Y19394424D01*
X2116734Y19388632D01*
X2146249Y19381368D01*
X2182114Y19370954D01*
X2212441Y19360591D01*
X2244293Y19348094D01*
X2266188Y19338493D01*
X2302662Y19320560D01*
X2337968Y19300342D01*
X2367737Y19281190D01*
X2399487Y19258635D01*
X2427681Y19236436D01*
X2453182Y19214642D01*
X2499614Y19168262D01*
X2518511Y19146520D01*
X2539238Y19121018D01*
X2555544Y19098971D01*
X2572258Y19074739D01*
X2586634Y19052082D01*
X2598826Y19031305D01*
X2611170Y19008648D01*
X2622804Y18985331D01*
X2634234Y18959525D01*
X2646121Y18930264D01*
X2658719Y18893434D01*
X2668168Y18862243D01*
X2675534Y18832982D01*
X2681173Y18806566D01*
X2693670Y18740424D01*
X2699156Y18717310D01*
X2702102Y18711621D01*
X2703677Y18711621D01*
X2704896Y18717514D01*
X2704896Y18747028D01*
X2702052Y18777508D01*
X2699105Y18798997D01*
X2692704Y18831356D01*
X2685897Y18858484D01*
X2678480Y18883985D01*
X2668219Y18915176D01*
X2658516Y18941186D01*
X2646324Y18970498D01*
X2635605Y18994475D01*
X2613609Y19037909D01*
X2597810Y19065341D01*
X2581757Y19090843D01*
X2569464Y19108775D01*
X2555290Y19127673D01*
X2541066Y19145605D01*
X2518511Y19172021D01*
X2466390Y19224091D01*
X2438095Y19248272D01*
X2416352Y19265646D01*
X2401214Y19277076D01*
X2378557Y19292976D01*
X2352141Y19310146D01*
X2323795Y19326758D01*
X2274671Y19351853D01*
X2241397Y19366941D01*
X2215184Y19377253D01*
X2186838Y19387007D01*
X2150973Y19397421D01*
X2121712Y19404939D01*
X2085797Y19411289D01*
X2048967Y19416166D01*
X2017775Y19419011D01*
G37*
G36*
X1875180Y19417842D02*
G01*
X1861972Y19417131D01*
X1833118Y19414236D01*
X1805279Y19408495D01*
X1765604Y19398386D01*
X1722170Y19385838D01*
X1683461Y19372884D01*
X1653235Y19360134D01*
X1597507Y19332194D01*
X1554429Y19307606D01*
X1520291Y19285813D01*
X1495450Y19267271D01*
X1471930Y19247612D01*
X1449222Y19227038D01*
X1405128Y19183350D01*
X1376476Y19152158D01*
X1357579Y19129552D01*
X1343253Y19110655D01*
X1322425Y19079464D01*
X1305458Y19051168D01*
X1287830Y19019062D01*
X1270965Y18984112D01*
X1258671Y18955766D01*
X1246784Y18925540D01*
X1234287Y18888760D01*
X1225956Y18860363D01*
X1220266Y18837706D01*
X1215593Y18815964D01*
X1211732Y18793307D01*
X1209802Y18779896D01*
X1206957Y18748959D01*
X1206957Y18716498D01*
X1208125Y18713500D01*
X1209598Y18713500D01*
X1212545Y18720968D01*
X1217218Y18739510D01*
X1228750Y18800876D01*
X1237132Y18838672D01*
X1247698Y18876416D01*
X1261465Y18917970D01*
X1275740Y18953886D01*
X1287932Y18981267D01*
X1303528Y19012408D01*
X1314907Y19033236D01*
X1330045Y19058686D01*
X1347927Y19086118D01*
X1364183Y19108775D01*
X1380134Y19129552D01*
X1402943Y19156883D01*
X1423873Y19179590D01*
X1455826Y19211036D01*
X1470964Y19224650D01*
X1497939Y19247307D01*
X1532686Y19273367D01*
X1568196Y19296888D01*
X1598422Y19314820D01*
X1627733Y19330568D01*
X1649425Y19340779D01*
X1689100Y19356527D01*
X1725930Y19369074D01*
X1763725Y19380454D01*
X1810969Y19392341D01*
X1879904Y19405854D01*
X1906879Y19412458D01*
X1911553Y19414591D01*
X1911553Y19415963D01*
X1906320Y19417131D01*
G37*
G36*
X2002688Y19307098D02*
G01*
X1991563Y19305727D01*
X1989074Y19303644D01*
X1986178Y19294805D01*
X1983435Y19281597D01*
X1979422Y19250406D01*
X1978304Y19220992D01*
X1979563Y19216827D01*
X1989734Y19216827D01*
X1992833Y19255130D01*
X1995728Y19283476D01*
X1998370Y19296481D01*
X2001316Y19300952D01*
X2004568Y19300952D01*
X2013813Y19298107D01*
X2019096Y19298107D01*
X2022043Y19293941D01*
X2022043Y19274383D01*
X2018284Y19240042D01*
X2016556Y19213322D01*
X2014372Y19209258D01*
X2009292Y19207327D01*
X1998878Y19208546D01*
X1990953Y19212052D01*
X1989734Y19216827D01*
X1979563Y19216827D01*
X1982266Y19207886D01*
X1987600Y19202806D01*
X1995576Y19199961D01*
X2007057Y19197929D01*
X2017166Y19200825D01*
X2021839Y19206464D01*
X2025853Y19218402D01*
X2029663Y19238163D01*
X2032406Y19263664D01*
X2032406Y19285356D01*
X2029612Y19298412D01*
X2026615Y19302984D01*
X2019807Y19305828D01*
G37*
G36*
X1842363Y19301917D02*
G01*
X1816607Y19301764D01*
X1799843Y19298208D01*
X1789328Y19292925D01*
X1785569Y19287744D01*
X1784756Y19276415D01*
X1785639Y19265493D01*
X1796288Y19265493D01*
X1796288Y19282003D01*
X1801926Y19288404D01*
X1810562Y19290842D01*
X1830781Y19292265D01*
X1853438Y19291909D01*
X1862378Y19287591D01*
X1871827Y19277228D01*
X1877618Y19265036D01*
X1880616Y19249491D01*
X1879549Y19230594D01*
X1876298Y19221145D01*
X1870659Y19213169D01*
X1863852Y19208496D01*
X1855114Y19204635D01*
X1842109Y19201841D01*
X1808581Y19199606D01*
X1807616Y19200571D01*
X1796288Y19265493D01*
X1785639Y19265493D01*
X1786991Y19248780D01*
X1790700Y19225869D01*
X1794611Y19211696D01*
X1799437Y19199402D01*
X1805787Y19189395D01*
X1812442Y19186601D01*
X1832660Y19188633D01*
X1850389Y19193306D01*
X1866087Y19200672D01*
X1876298Y19207429D01*
X1886153Y19217487D01*
X1890572Y19224955D01*
X1893824Y19236182D01*
X1892807Y19252336D01*
X1889760Y19263664D01*
X1885645Y19274028D01*
X1879041Y19285356D01*
X1869490Y19294856D01*
X1858365Y19299123D01*
G37*
G36*
X1829816Y19282613D02*
G01*
X1826056Y19281851D01*
X1822754Y19278955D01*
X1822754Y19274840D01*
X1832254Y19224955D01*
X1836013Y19212204D01*
X1839823Y19210172D01*
X1843989Y19211442D01*
X1852066Y19216420D01*
X1855114Y19224498D01*
X1851914Y19249491D01*
X1848205Y19265341D01*
X1844395Y19274028D01*
X1839264Y19279412D01*
X1835556Y19281394D01*
G37*
G36*
X2158847Y19282054D02*
G01*
X2151888Y19281851D01*
X2145741Y19280428D01*
X2139442Y19276110D01*
X2135276Y19270014D01*
X2127097Y19251371D01*
X2118258Y19225869D01*
X2112568Y19204127D01*
X2112446Y19194830D01*
X2119274Y19194830D01*
X2135073Y19239077D01*
X2147925Y19276415D01*
X2149094Y19276415D01*
X2188972Y19263309D01*
X2202891Y19256349D01*
X2207158Y19252438D01*
X2207158Y19248069D01*
X2203754Y19248069D01*
X2183993Y19254774D01*
X2174189Y19255079D01*
X2170074Y19251371D01*
X2164638Y19240042D01*
X2165807Y19234353D01*
X2168906Y19230898D01*
X2173630Y19228409D01*
X2183079Y19227088D01*
X2187295Y19223177D01*
X2187295Y19214998D01*
X2182876Y19214998D01*
X2168550Y19221602D01*
X2163013Y19221602D01*
X2157780Y19217487D01*
X2152599Y19206057D01*
X2147671Y19190360D01*
X2147671Y19188785D01*
X2155698Y19186804D01*
X2170379Y19183756D01*
X2178354Y19180302D01*
X2182774Y19175526D01*
X2182063Y19172021D01*
X2168906Y19172224D01*
X2139035Y19182130D01*
X2120392Y19191427D01*
X2119274Y19194830D01*
X2112446Y19194830D01*
X2112416Y19190919D01*
X2116480Y19182994D01*
X2122627Y19178320D01*
X2131314Y19174561D01*
X2148738Y19168821D01*
X2169820Y19164096D01*
X2183231Y19162877D01*
X2189175Y19165925D01*
X2192274Y19170650D01*
X2191258Y19178422D01*
X2183993Y19185890D01*
X2175256Y19190360D01*
X2169363Y19196253D01*
X2169363Y19199098D01*
X2171293Y19202704D01*
X2176475Y19205295D01*
X2183993Y19206667D01*
X2191562Y19211036D01*
X2196033Y19218960D01*
X2195068Y19226276D01*
X2188108Y19234708D01*
X2188718Y19240042D01*
X2195322Y19242278D01*
X2205736Y19242430D01*
X2211832Y19246138D01*
X2213051Y19251015D01*
X2211933Y19257822D01*
X2204923Y19265036D01*
X2190597Y19272402D01*
X2172258Y19279260D01*
G37*
G36*
X1657959Y19244259D02*
G01*
X1645666Y19244106D01*
X1635302Y19241770D01*
X1627733Y19239331D01*
X1617014Y19232930D01*
X1606956Y19222008D01*
X1601622Y19211086D01*
X1598726Y19197523D01*
X1599213Y19191376D01*
X1610004Y19191376D01*
X1610868Y19206159D01*
X1615186Y19215100D01*
X1623263Y19225056D01*
X1633372Y19232016D01*
X1643786Y19235826D01*
X1661718Y19235216D01*
X1672336Y19230086D01*
X1684578Y19218859D01*
X1692351Y19206972D01*
X1697532Y19193764D01*
X1697634Y19169227D01*
X1692351Y19158458D01*
X1682394Y19149364D01*
X1672843Y19144234D01*
X1660804Y19141135D01*
X1648714Y19142252D01*
X1636826Y19147790D01*
X1628089Y19155867D01*
X1616608Y19172986D01*
X1612493Y19182435D01*
X1610004Y19191376D01*
X1599213Y19191376D01*
X1599793Y19183350D01*
X1603806Y19171107D01*
X1610512Y19158966D01*
X1625854Y19143014D01*
X1637182Y19135039D01*
X1642821Y19132956D01*
X1650390Y19131838D01*
X1664563Y19133820D01*
X1676857Y19136817D01*
X1690979Y19143522D01*
X1701952Y19154495D01*
X1708251Y19168262D01*
X1710385Y19178270D01*
X1710385Y19191579D01*
X1707388Y19203212D01*
X1700530Y19217386D01*
X1682496Y19235420D01*
X1670710Y19241566D01*
G37*
G36*
X1634896Y19221602D02*
G01*
X1630933Y19217386D01*
X1632204Y19209816D01*
X1635963Y19199402D01*
X1647850Y19174866D01*
X1657197Y19160591D01*
X1664512Y19154597D01*
X1670507Y19153428D01*
X1674622Y19154749D01*
X1677314Y19161099D01*
X1677314Y19167348D01*
X1673402Y19181419D01*
X1665782Y19196608D01*
X1657705Y19207937D01*
X1646224Y19218859D01*
X1639570Y19221602D01*
G37*
G36*
X2331364Y19201739D02*
G01*
X2323795Y19201587D01*
X2315819Y19200012D01*
X2307132Y19196151D01*
X2299817Y19190411D01*
X2273808Y19157086D01*
X2265883Y19144996D01*
X2263597Y19135598D01*
X2264909Y19130467D01*
X2273757Y19130467D01*
X2273757Y19142913D01*
X2278989Y19149771D01*
X2286558Y19151854D01*
X2290724Y19150533D01*
X2292146Y19148450D01*
X2292146Y19144640D01*
X2285796Y19135191D01*
X2284476Y19131026D01*
X2287270Y19125641D01*
X2300681Y19112992D01*
X2305456Y19112992D01*
X2310892Y19115786D01*
X2314803Y19120815D01*
X2314803Y19127470D01*
X2303678Y19148450D01*
X2300630Y19158966D01*
X2300376Y19172123D01*
X2303526Y19181673D01*
X2310282Y19189547D01*
X2316226Y19192646D01*
X2321915Y19194170D01*
X2334158Y19193357D01*
X2347925Y19186398D01*
X2358034Y19176644D01*
X2362809Y19167195D01*
X2364130Y19160236D01*
X2362911Y19153682D01*
X2358085Y19147942D01*
X2352497Y19147942D01*
X2347163Y19150736D01*
X2345994Y19153784D01*
X2345994Y19157442D01*
X2348890Y19158559D01*
X2351582Y19163741D01*
X2349754Y19170345D01*
X2344267Y19177914D01*
X2335479Y19182181D01*
X2327910Y19181165D01*
X2324100Y19177711D01*
X2325268Y19168262D01*
X2342134Y19133312D01*
X2343404Y19126149D01*
X2337562Y19114414D01*
X2330551Y19107251D01*
X2321915Y19102171D01*
X2303881Y19102171D01*
X2288895Y19109537D01*
X2278837Y19119596D01*
X2273757Y19130467D01*
X2264909Y19130467D01*
X2265832Y19126860D01*
X2270353Y19119088D01*
X2281275Y19106489D01*
X2289759Y19100393D01*
X2303018Y19094348D01*
X2313025Y19092214D01*
X2322982Y19092214D01*
X2332634Y19095110D01*
X2342692Y19106235D01*
X2354884Y19125742D01*
X2369362Y19155054D01*
X2372614Y19164960D01*
X2371344Y19172478D01*
X2364282Y19183350D01*
X2354275Y19193154D01*
X2343454Y19198894D01*
G37*
G36*
X1495348Y19147028D02*
G01*
X1484071Y19141389D01*
X1472285Y19130721D01*
X1468577Y19123304D01*
X1479854Y19123304D01*
X1482445Y19129552D01*
X1489405Y19135699D01*
X1493215Y19135699D01*
X1501190Y19131686D01*
X1529486Y19103035D01*
X1541373Y19088252D01*
X1546453Y19078549D01*
X1546453Y19063411D01*
X1542338Y19055689D01*
X1535328Y19049492D01*
X1529080Y19046901D01*
X1519529Y19046901D01*
X1512976Y19049644D01*
X1506220Y19054775D01*
X1500581Y19063004D01*
X1501190Y19068135D01*
X1506829Y19067729D01*
X1517243Y19060414D01*
X1523288Y19057315D01*
X1528724Y19057315D01*
X1529892Y19058483D01*
X1527098Y19065240D01*
X1519631Y19075095D01*
X1492808Y19104051D01*
X1483360Y19115379D01*
X1479854Y19123304D01*
X1468577Y19123304D01*
X1468577Y19116141D01*
X1473504Y19106896D01*
X1486662Y19090182D01*
X1492808Y19080429D01*
X1495247Y19074333D01*
X1492910Y19063868D01*
X1495399Y19054927D01*
X1506829Y19043548D01*
X1520037Y19038214D01*
X1529588Y19037249D01*
X1538020Y19041465D01*
X1547672Y19049288D01*
X1554988Y19059194D01*
X1559306Y19070980D01*
X1558391Y19082816D01*
X1554632Y19091300D01*
X1546199Y19102273D01*
X1527606Y19121831D01*
X1507794Y19139763D01*
X1496618Y19147028D01*
G37*
G36*
X1970582Y19090335D02*
G01*
X1922373Y19090030D01*
X1892147Y19088658D01*
X1863852Y19083731D01*
X1837385Y19077889D01*
X1815693Y19071336D01*
X1798675Y19064630D01*
X1786382Y19057924D01*
X1771802Y19043751D01*
X1764182Y19032118D01*
X1762150Y19020942D01*
X1759000Y19017335D01*
X1751228Y19013881D01*
X1738223Y19011138D01*
X1684375Y19003365D01*
X1665478Y18999504D01*
X1642821Y18993866D01*
X1614525Y18984468D01*
X1588058Y18971463D01*
X1566316Y18953734D01*
X1546250Y18935598D01*
X1532382Y18920256D01*
X1521714Y18905321D01*
X1512214Y18886830D01*
X1505559Y18867729D01*
X1499920Y18844310D01*
X1496009Y18821654D01*
X1491335Y18783858D01*
X1489252Y18764046D01*
X1477111Y18679058D01*
X1474165Y18654471D01*
X1473880Y18645581D01*
X1491945Y18645581D01*
X1494180Y18687542D01*
X1497939Y18723457D01*
X1512976Y18827343D01*
X1515922Y18844310D01*
X1519682Y18859449D01*
X1525524Y18877381D01*
X1533448Y18894399D01*
X1541526Y18907556D01*
X1551533Y18921018D01*
X1567738Y18937274D01*
X1582420Y18948450D01*
X1595170Y18956223D01*
X1612493Y18964910D01*
X1629613Y18971514D01*
X1650390Y18977762D01*
X1667408Y18981623D01*
X1689100Y18985484D01*
X1732534Y18990259D01*
X1743710Y18992240D01*
X1753412Y18995898D01*
X1760220Y19003010D01*
X1766773Y19013373D01*
X1773936Y19027546D01*
X1774748Y19025209D01*
X1772716Y18999200D01*
X1770735Y18992189D01*
X1767839Y18989294D01*
X1761591Y18989294D01*
X1760423Y18986296D01*
X1760423Y18978880D01*
X1763217Y18960185D01*
X1769821Y18925540D01*
X1778355Y18882664D01*
X1785721Y18853759D01*
X1789785Y18842990D01*
X1793341Y18838672D01*
X1796796Y18842024D01*
X1796389Y18862294D01*
X1793443Y18893434D01*
X1785010Y18974663D01*
X1782114Y19005804D01*
X1780895Y19038062D01*
X1786382Y19043243D01*
X1801520Y19050508D01*
X1829816Y19060058D01*
X1860042Y19067627D01*
X1881784Y19071336D01*
X1903526Y19073520D01*
X1929028Y19074942D01*
X1970582Y19075247D01*
X2005533Y19073368D01*
X2025345Y19071386D01*
X2053691Y19066560D01*
X2087067Y19058229D01*
X2111298Y19049898D01*
X2123694Y19044310D01*
X2130907Y19037960D01*
X2129739Y19004889D01*
X2126843Y18974663D01*
X2117496Y18885865D01*
X2113635Y18844107D01*
X2113229Y18823533D01*
X2114753Y18821095D01*
X2117394Y18823279D01*
X2122170Y18838367D01*
X2130552Y18871692D01*
X2140915Y18917970D01*
X2148535Y18955766D01*
X2152396Y18979388D01*
X2152396Y18985484D01*
X2148027Y18988328D01*
X2141575Y18986449D01*
X2137714Y18990310D01*
X2137105Y19027089D01*
X2138680Y19027038D01*
X2150008Y19005143D01*
X2157323Y18996761D01*
X2164283Y18993205D01*
X2178354Y18990360D01*
X2217064Y18986398D01*
X2236927Y18983502D01*
X2260498Y18978727D01*
X2282139Y18972174D01*
X2296769Y18966535D01*
X2317191Y18956070D01*
X2334158Y18944590D01*
X2348433Y18932804D01*
X2366518Y18913906D01*
X2379218Y18894907D01*
X2387346Y18876416D01*
X2392375Y18860363D01*
X2397861Y18835827D01*
X2403551Y18795238D01*
X2410256Y18745149D01*
X2415032Y18714923D01*
X2418588Y18687542D01*
X2420772Y18640348D01*
X2419553Y18600674D01*
X2417673Y18568568D01*
X2413965Y18529808D01*
X2409190Y18496788D01*
X2402586Y18464022D01*
X2396185Y18442940D01*
X2389682Y18427852D01*
X2383586Y18417438D01*
X2375306Y18405856D01*
X2363470Y18395137D01*
X2350262Y18388584D01*
X2338425Y18386552D01*
X2326640Y18388584D01*
X2312974Y18395340D01*
X2300986Y18407126D01*
X2292858Y18419114D01*
X2284730Y18436336D01*
X2275992Y18461837D01*
X2263952Y18504306D01*
X2251506Y18551550D01*
X2233422Y18623076D01*
X2236266Y18625921D01*
X2245410Y18623686D01*
X2249728Y18620892D01*
X2251405Y18616472D01*
X2248611Y18605804D01*
X2249779Y18603976D01*
X2255012Y18603976D01*
X2265222Y18607481D01*
X2280818Y18615304D01*
X2301646Y18629376D01*
X2319832Y18644057D01*
X2338882Y18661278D01*
X2357475Y18680633D01*
X2372766Y18699835D01*
X2380843Y18712281D01*
X2393188Y18737376D01*
X2393188Y18741237D01*
X2388616Y18736919D01*
X2357780Y18693231D01*
X2334158Y18669457D01*
X2316226Y18657620D01*
X2296820Y18648222D01*
X2269032Y18639078D01*
X2238806Y18632322D01*
X2188718Y18623737D01*
X2167178Y18618911D01*
X2148128Y18613272D01*
X2130247Y18604839D01*
X2116480Y18594476D01*
X2106523Y18582386D01*
X2098040Y18567654D01*
X2089912Y18546978D01*
X2081733Y18518479D01*
X2072081Y18475045D01*
X2056892Y18400420D01*
X2045512Y18349417D01*
X2037080Y18315736D01*
X2026767Y18280075D01*
X2018131Y18255945D01*
X2005939Y18231002D01*
X1995017Y18216270D01*
X1981962Y18204484D01*
X1966772Y18196864D01*
X1954987Y18194680D01*
X1943607Y18196814D01*
X1931568Y18202757D01*
X1920646Y18212460D01*
X1909622Y18226328D01*
X1900580Y18241772D01*
X1892757Y18259704D01*
X1883105Y18288050D01*
X1872691Y18323966D01*
X1860651Y18372124D01*
X1851914Y18411799D01*
X1836826Y18487339D01*
X1829206Y18521172D01*
X1821789Y18547486D01*
X1815439Y18563894D01*
X1809292Y18576086D01*
X1801622Y18587415D01*
X1790395Y18598489D01*
X1777136Y18607074D01*
X1759966Y18614085D01*
X1742948Y18618911D01*
X1721205Y18623737D01*
X1668322Y18633135D01*
X1654149Y18636132D01*
X1629257Y18642634D01*
X1609801Y18650000D01*
X1595628Y18657062D01*
X1580489Y18666917D01*
X1567586Y18677890D01*
X1551178Y18696990D01*
X1525422Y18733820D01*
X1518716Y18741390D01*
X1518666Y18737580D01*
X1529943Y18714313D01*
X1540002Y18698870D01*
X1552956Y18682817D01*
X1569161Y18665139D01*
X1591818Y18644260D01*
X1613560Y18626886D01*
X1630578Y18615609D01*
X1642821Y18608852D01*
X1656638Y18603976D01*
X1662074Y18603976D01*
X1663242Y18605804D01*
X1661007Y18613882D01*
X1661160Y18619571D01*
X1665884Y18623635D01*
X1675790Y18625769D01*
X1678432Y18623076D01*
X1660194Y18550585D01*
X1649018Y18508014D01*
X1637792Y18468441D01*
X1629105Y18442635D01*
X1620824Y18422823D01*
X1612798Y18408954D01*
X1598422Y18394730D01*
X1583334Y18387212D01*
X1562455Y18387212D01*
X1547622Y18394527D01*
X1534058Y18407989D01*
X1526489Y18419318D01*
X1518818Y18433491D01*
X1512011Y18451880D01*
X1504543Y18480735D01*
X1499768Y18508116D01*
X1496009Y18537783D01*
X1492961Y18572327D01*
X1491945Y18645581D01*
X1473880Y18645581D01*
X1473047Y18619571D01*
X1475282Y18589345D01*
X1478991Y18552515D01*
X1483817Y18513755D01*
X1489405Y18480278D01*
X1496771Y18450509D01*
X1502765Y18433491D01*
X1511096Y18415762D01*
X1521409Y18400268D01*
X1539087Y18383351D01*
X1554226Y18375477D01*
X1565300Y18372582D01*
X1580896Y18372582D01*
X1595882Y18377306D01*
X1609801Y18386450D01*
X1622755Y18399455D01*
X1633982Y18416473D01*
X1642465Y18434253D01*
X1649984Y18456097D01*
X1662074Y18498667D01*
X1672539Y18538342D01*
X1679143Y18566028D01*
X1683004Y18583656D01*
X1684731Y18600166D01*
X1687931Y18605601D01*
X1693773Y18609005D01*
X1708302Y18609868D01*
X1727860Y18606668D01*
X1750110Y18601080D01*
X1762607Y18596406D01*
X1773936Y18590615D01*
X1784807Y18582233D01*
X1794510Y18569482D01*
X1803654Y18550585D01*
X1811274Y18527014D01*
X1817928Y18500547D01*
X1837994Y18407075D01*
X1849983Y18355106D01*
X1859686Y18316397D01*
X1868220Y18286171D01*
X1876806Y18259704D01*
X1884324Y18240857D01*
X1895449Y18219115D01*
X1907793Y18202706D01*
X1920493Y18192089D01*
X1932432Y18185333D01*
X1943658Y18181828D01*
X1958492Y18180608D01*
X1972716Y18183758D01*
X1987550Y18190972D01*
X1999234Y18199811D01*
X2009139Y18210631D01*
X2017522Y18223585D01*
X2030425Y18250255D01*
X2041702Y18280481D01*
X2052218Y18313958D01*
X2061464Y18348502D01*
X2071166Y18389498D01*
X2082393Y18445784D01*
X2091994Y18495822D01*
X2099614Y18527014D01*
X2107133Y18549366D01*
X2115769Y18566638D01*
X2123795Y18578017D01*
X2133346Y18586907D01*
X2145030Y18594476D01*
X2160422Y18600420D01*
X2184958Y18606617D01*
X2202738Y18609614D01*
X2214321Y18609614D01*
X2222703Y18605398D01*
X2227072Y18596711D01*
X2232558Y18565723D01*
X2238349Y18540222D01*
X2246020Y18511012D01*
X2256282Y18475045D01*
X2267813Y18440095D01*
X2273401Y18425922D01*
X2283002Y18408599D01*
X2295144Y18392343D01*
X2308250Y18381065D01*
X2321712Y18374309D01*
X2335123Y18371464D01*
X2346452Y18372582D01*
X2354986Y18375172D01*
X2364384Y18379795D01*
X2372614Y18385028D01*
X2388616Y18400369D01*
X2398877Y18415812D01*
X2409139Y18437301D01*
X2417876Y18462752D01*
X2423464Y18484291D01*
X2429002Y18512840D01*
X2431897Y18532652D01*
X2433929Y18550585D01*
X2436622Y18585535D01*
X2436622Y18649746D01*
X2433878Y18688812D01*
X2430119Y18720612D01*
X2424277Y18757442D01*
X2413152Y18834354D01*
X2411018Y18846190D01*
X2406497Y18864173D01*
X2400960Y18880226D01*
X2394153Y18895974D01*
X2387193Y18908522D01*
X2377795Y18922695D01*
X2365959Y18936868D01*
X2352141Y18950279D01*
X2341727Y18958864D01*
X2321356Y18972225D01*
X2298293Y18983452D01*
X2277516Y18991122D01*
X2258618Y18996710D01*
X2237130Y19001587D01*
X2215184Y19005245D01*
X2186838Y19009207D01*
X2164791Y19012916D01*
X2152650Y19016675D01*
X2147671Y19021653D01*
X2147671Y19028562D01*
X2145080Y19038366D01*
X2139645Y19046291D01*
X2127758Y19056096D01*
X2107488Y19066560D01*
X2085136Y19074282D01*
X2058416Y19080835D01*
X2030984Y19085509D01*
X2003602Y19088455D01*
G37*
G36*
X1901596Y18990056D02*
G01*
X1879854Y18988481D01*
X1867103Y18985534D01*
X1859940Y18981877D01*
X1853082Y18974308D01*
X1850847Y18966180D01*
X1851795Y18953886D01*
X1860550Y18953886D01*
X1860550Y18965875D01*
X1863547Y18972174D01*
X1867814Y18975019D01*
X1878177Y18978016D01*
X1895957Y18979743D01*
X1993239Y18978880D01*
X2027936Y18977000D01*
X2040382Y18975019D01*
X2046630Y18972072D01*
X2050745Y18966281D01*
X2051507Y18955766D01*
X2045766Y18947942D01*
X2036521Y18944844D01*
X2020620Y18943015D01*
X1962048Y18940932D01*
X1882749Y18941846D01*
X1872488Y18944082D01*
X1864106Y18948044D01*
X1860550Y18953886D01*
X1851795Y18953886D01*
X1851914Y18952260D01*
X1856790Y18942304D01*
X1863852Y18937427D01*
X1871878Y18934582D01*
X1891233Y18931636D01*
X1956155Y18929451D01*
X2022500Y18931737D01*
X2034793Y18933617D01*
X2046122Y18936462D01*
X2054606Y18941592D01*
X2060295Y18952921D01*
X2060295Y18974054D01*
X2056333Y18979388D01*
X2050084Y18983655D01*
X2040432Y18986550D01*
X2020620Y18989548D01*
G37*
G36*
X2486253Y18939205D02*
G01*
X2477516Y18936411D01*
X2469845Y18928740D01*
X2467610Y18922034D01*
X2468056Y18917970D01*
X2476347Y18917970D01*
X2476347Y18922847D01*
X2483053Y18930721D01*
X2489606Y18932601D01*
X2496108Y18929908D01*
X2499918Y18923660D01*
X2499918Y18917462D01*
X2497378Y18911316D01*
X2492451Y18908064D01*
X2486609Y18908064D01*
X2481122Y18910909D01*
X2476347Y18917970D01*
X2468067Y18917869D01*
X2468524Y18913754D01*
X2473706Y18906947D01*
X2479548Y18903391D01*
X2488133Y18902121D01*
X2498394Y18904254D01*
X2505659Y18909080D01*
X2509367Y18915176D01*
X2509367Y18924727D01*
X2503881Y18933414D01*
X2495702Y18938189D01*
G37*
G36*
X2272792Y18899378D02*
G01*
X2265222Y18897854D01*
X2255621Y18894196D01*
X2246325Y18887897D01*
X2229764Y18873927D01*
X2209800Y18853759D01*
X2206859Y18850152D01*
X2216556Y18850152D01*
X2240584Y18875248D01*
X2242074Y18870777D01*
X2253843Y18870777D01*
X2255418Y18881140D01*
X2260142Y18889218D01*
X2267559Y18894145D01*
X2273757Y18895618D01*
X2280361Y18894602D01*
X2285339Y18892062D01*
X2291892Y18884392D01*
X2295906Y18873927D01*
X2295906Y18866967D01*
X2292299Y18861074D01*
X2285492Y18854267D01*
X2277516Y18850152D01*
X2267102Y18850102D01*
X2259279Y18854166D01*
X2255113Y18860973D01*
X2253843Y18870777D01*
X2242074Y18870777D01*
X2246172Y18858484D01*
X2258618Y18846038D01*
X2269540Y18841974D01*
X2277465Y18841974D01*
X2287727Y18847155D01*
X2298547Y18857823D01*
X2305862Y18871590D01*
X2308199Y18872352D01*
X2320696Y18860363D01*
X2329942Y18849746D01*
X2318105Y18845479D01*
X2309622Y18840856D01*
X2302510Y18832068D01*
X2298750Y18820028D01*
X2298750Y18817285D01*
X2304338Y18817285D01*
X2305608Y18824498D01*
X2310079Y18832372D01*
X2316124Y18836690D01*
X2324760Y18839129D01*
X2335377Y18838214D01*
X2344521Y18834862D01*
X2348890Y18828308D01*
X2348331Y18821654D01*
X2345080Y18821044D01*
X2324760Y18833439D01*
X2320696Y18833439D01*
X2319528Y18830493D01*
X2319528Y18805956D01*
X2321306Y18807023D01*
X2325370Y18825413D01*
X2326284Y18828766D01*
X2337968Y18819926D01*
X2347874Y18811595D01*
X2347874Y18806464D01*
X2339848Y18798590D01*
X2332837Y18795695D01*
X2321915Y18795695D01*
X2312466Y18800114D01*
X2306472Y18806922D01*
X2304338Y18817285D01*
X2298750Y18817285D01*
X2298750Y18813119D01*
X2301290Y18803315D01*
X2305761Y18796812D01*
X2313228Y18791936D01*
X2323236Y18789040D01*
X2328367Y18784620D01*
X2325928Y18778728D01*
X2305202Y18758712D01*
X2304288Y18759627D01*
X2300528Y18774308D01*
X2297023Y18781166D01*
X2289810Y18788176D01*
X2282139Y18791885D01*
X2273249Y18793104D01*
X2261666Y18790666D01*
X2253234Y18784824D01*
X2247696Y18777153D01*
X2240588Y18759932D01*
X2251405Y18759932D01*
X2251405Y18767806D01*
X2253234Y18772530D01*
X2258923Y18780302D01*
X2268931Y18785281D01*
X2278024Y18785281D01*
X2285085Y18782385D01*
X2290521Y18777254D01*
X2294991Y18767806D01*
X2294991Y18760795D01*
X2291181Y18750686D01*
X2284374Y18742710D01*
X2277110Y18739002D01*
X2268880Y18739002D01*
X2260193Y18744742D01*
X2255215Y18751346D01*
X2251405Y18759932D01*
X2240588Y18759932D01*
X2240483Y18759678D01*
X2239010Y18759576D01*
X2221077Y18779134D01*
X2218283Y18783401D01*
X2219248Y18785992D01*
X2231542Y18792850D01*
X2240991Y18800318D01*
X2247036Y18812611D01*
X2246934Y18824854D01*
X2243328Y18833084D01*
X2237079Y18840196D01*
X2216556Y18850152D01*
X2206859Y18850152D01*
X2198979Y18840551D01*
X2192832Y18831509D01*
X2192205Y18830137D01*
X2197557Y18830137D01*
X2203805Y18835370D01*
X2213305Y18839027D01*
X2224227Y18839129D01*
X2230272Y18836589D01*
X2236520Y18831356D01*
X2240330Y18823889D01*
X2241397Y18814592D01*
X2238197Y18806109D01*
X2229053Y18797930D01*
X2221585Y18795695D01*
X2214219Y18795746D01*
X2206650Y18799149D01*
X2200300Y18806414D01*
X2197608Y18812814D01*
X2198827Y18816523D01*
X2206193Y18819520D01*
X2206193Y18822111D01*
X2198776Y18826988D01*
X2197557Y18830137D01*
X2192205Y18830137D01*
X2187956Y18820841D01*
X2188108Y18812814D01*
X2194864Y18799911D01*
X2207615Y18782944D01*
X2231237Y18759170D01*
X2250541Y18743828D01*
X2263343Y18736310D01*
X2272995Y18733211D01*
X2281275Y18735395D01*
X2293569Y18741847D01*
X2309977Y18754039D01*
X2331110Y18774410D01*
X2342896Y18789548D01*
X2354681Y18807480D01*
X2359304Y18816624D01*
X2353767Y18828512D01*
X2342438Y18845326D01*
X2327859Y18864173D01*
X2317191Y18875146D01*
X2304288Y18881953D01*
X2290419Y18894907D01*
X2282240Y18898412D01*
G37*
G36*
X1641906Y18889065D02*
G01*
X1633067Y18887490D01*
X1622044Y18884392D01*
X1612595Y18880480D01*
X1599387Y18871742D01*
X1580489Y18852743D01*
X1568500Y18835827D01*
X1562049Y18823076D01*
X1559102Y18812205D01*
X1558036Y18784417D01*
X1559721Y18773495D01*
X1564436Y18773495D01*
X1564436Y18803721D01*
X1567891Y18817894D01*
X1573530Y18831966D01*
X1582369Y18846952D01*
X1598828Y18864326D01*
X1612595Y18873825D01*
X1622094Y18878600D01*
X1635760Y18882766D01*
X1653235Y18884087D01*
X1664563Y18883477D01*
X1678736Y18881496D01*
X1692910Y18877635D01*
X1704593Y18872352D01*
X1713433Y18866256D01*
X1726742Y18853759D01*
X1737309Y18840500D01*
X1745132Y18825413D01*
X1749094Y18812510D01*
X1751025Y18800216D01*
X1750974Y18777254D01*
X1747418Y18760236D01*
X1742186Y18747130D01*
X1735582Y18735700D01*
X1725574Y18723203D01*
X1715566Y18714770D01*
X1707032Y18709030D01*
X1693824Y18702426D01*
X1678482Y18697549D01*
X1661718Y18695314D01*
X1642821Y18696432D01*
X1628343Y18700191D01*
X1614322Y18705982D01*
X1599387Y18715736D01*
X1584756Y18730468D01*
X1575206Y18745098D01*
X1568704Y18758763D01*
X1564436Y18773495D01*
X1559721Y18773495D01*
X1560322Y18769736D01*
X1564182Y18755563D01*
X1571294Y18740424D01*
X1579727Y18727470D01*
X1593697Y18713348D01*
X1609293Y18702934D01*
X1624076Y18696736D01*
X1640941Y18692266D01*
X1678736Y18692368D01*
X1693672Y18696533D01*
X1707997Y18702731D01*
X1718767Y18709843D01*
X1731619Y18721781D01*
X1742541Y18736970D01*
X1751482Y18754598D01*
X1756714Y18770955D01*
X1759457Y18785484D01*
X1759457Y18793460D01*
X1756410Y18811240D01*
X1749907Y18829985D01*
X1742236Y18845276D01*
X1735683Y18855537D01*
X1725320Y18866358D01*
X1712722Y18874790D01*
X1703273Y18879515D01*
X1689100Y18884646D01*
X1673047Y18888354D01*
G37*
G36*
X1629460Y18867475D02*
G01*
X1628190Y18866205D01*
X1628190Y18813373D01*
X1581861Y18816726D01*
X1580642Y18815507D01*
X1578892Y18784011D01*
X1596694Y18784011D01*
X1596694Y18790056D01*
X1603146Y18796762D01*
X1626158Y18808039D01*
X1636522Y18818199D01*
X1642059Y18826378D01*
X1650238Y18841364D01*
X1656740Y18848578D01*
X1662074Y18848578D01*
X1666239Y18842736D01*
X1669745Y18831407D01*
X1669745Y18825870D01*
X1674926Y18824041D01*
X1677670Y18822466D01*
X1680311Y18814440D01*
X1689811Y18806972D01*
X1710740Y18796254D01*
X1717903Y18789802D01*
X1717903Y18785636D01*
X1713687Y18781623D01*
X1696669Y18771870D01*
X1684528Y18763234D01*
X1674012Y18752464D01*
X1664868Y18733262D01*
X1657756Y18725794D01*
X1653844Y18725794D01*
X1650085Y18731026D01*
X1642668Y18747181D01*
X1635556Y18758357D01*
X1621332Y18772073D01*
X1622501Y18777966D01*
X1619199Y18776492D01*
X1613154Y18775680D01*
X1602841Y18778880D01*
X1596694Y18784011D01*
X1578892Y18784011D01*
X1578203Y18771616D01*
X1578152Y18758865D01*
X1628190Y18758865D01*
X1628190Y18713500D01*
X1690573Y18713500D01*
X1685747Y18752718D01*
X1684629Y18758865D01*
X1733956Y18758865D01*
X1733956Y18818504D01*
X1697634Y18817336D01*
X1687982Y18816370D01*
X1686763Y18832068D01*
X1686763Y18865342D01*
X1632457Y18866662D01*
G37*
G36*
X1376476Y18844412D02*
G01*
X1370533Y18843193D01*
X1361643Y18838011D01*
X1357782Y18829223D01*
X1357664Y18820536D01*
X1364691Y18820536D01*
X1364742Y18827343D01*
X1367993Y18831509D01*
X1374597Y18834354D01*
X1380794Y18834404D01*
X1386890Y18831814D01*
X1390446Y18827851D01*
X1389329Y18820942D01*
X1385163Y18814897D01*
X1378864Y18810579D01*
X1373936Y18810579D01*
X1368958Y18814288D01*
X1364691Y18820536D01*
X1357664Y18820536D01*
X1357630Y18815964D01*
X1360017Y18810274D01*
X1364234Y18807531D01*
X1386027Y18806820D01*
X1393088Y18809766D01*
X1395831Y18816421D01*
X1395831Y18826175D01*
X1393647Y18833490D01*
X1387195Y18841059D01*
X1383131Y18843244D01*
G37*
G36*
X1947875Y18798540D02*
G01*
X1936546Y18794222D01*
X1927809Y18788176D01*
X1919986Y18779337D01*
X1914448Y18767806D01*
X1913091Y18759779D01*
X1917903Y18759779D01*
X1921509Y18750584D01*
X1936089Y18750584D01*
X1936089Y18760998D01*
X1938324Y18768415D01*
X1945081Y18775934D01*
X1952599Y18778728D01*
X1960981Y18777712D01*
X1968855Y18773089D01*
X1973580Y18766891D01*
X1978050Y18758357D01*
X1978101Y18746876D01*
X1972919Y18740120D01*
X1962657Y18735090D01*
X1951482Y18735141D01*
X1943658Y18738291D01*
X1938832Y18743980D01*
X1936089Y18750584D01*
X1921509Y18750584D01*
X1923999Y18744234D01*
X1928825Y18735852D01*
X1936546Y18727420D01*
X1947570Y18722187D01*
X1956714Y18720917D01*
X1968347Y18723914D01*
X1976221Y18728537D01*
X1984502Y18736513D01*
X1989429Y18747028D01*
X1989429Y18765113D01*
X1977694Y18789091D01*
X1978202Y18789091D01*
X1989023Y18775883D01*
X1995982Y18761303D01*
X1995982Y18748705D01*
X1989785Y18736157D01*
X1977948Y18724372D01*
X1964893Y18717768D01*
X1947824Y18717768D01*
X1933549Y18724829D01*
X1923034Y18735395D01*
X1916938Y18746876D01*
X1916023Y18759779D01*
X1913091Y18759779D01*
X1912315Y18755156D01*
X1914499Y18742050D01*
X1919935Y18730518D01*
X1929028Y18720816D01*
X1936089Y18716294D01*
X1945843Y18712484D01*
X1958390Y18710910D01*
X1969617Y18712688D01*
X1979066Y18717056D01*
X1988362Y18725286D01*
X1995373Y18736157D01*
X2000504Y18750229D01*
X1999843Y18765012D01*
X1994306Y18776340D01*
X1979066Y18791580D01*
X1966010Y18797981D01*
G37*
G36*
X2135073Y18798540D02*
G01*
X2123541Y18798286D01*
X2119782Y18797473D01*
X2110943Y18794628D01*
X2103120Y18786094D01*
X2097582Y18774359D01*
X2093569Y18758458D01*
X2094626Y18747028D01*
X2112264Y18747028D01*
X2112467Y18763081D01*
X2114804Y18774410D01*
X2121306Y18780556D01*
X2127351Y18782385D01*
X2137918Y18781725D01*
X2143861Y18778677D01*
X2150160Y18772327D01*
X2154072Y18763945D01*
X2155393Y18755258D01*
X2152446Y18745149D01*
X2145284Y18738291D01*
X2138680Y18734836D01*
X2125472Y18734786D01*
X2116023Y18739510D01*
X2112264Y18747028D01*
X2094626Y18747028D01*
X2094687Y18746368D01*
X2099360Y18736208D01*
X2104694Y18729248D01*
X2115464Y18722238D01*
X2127707Y18718936D01*
X2142439Y18719850D01*
X2155291Y18725692D01*
X2166416Y18736818D01*
X2169769Y18747994D01*
X2169718Y18769736D01*
X2166569Y18780252D01*
X2159000Y18788837D01*
X2149856Y18794730D01*
G37*
G36*
X2201011Y18730214D02*
G01*
X2195322Y18729502D01*
X2185060Y18726556D01*
X2174341Y18721171D01*
X2166518Y18712281D01*
X2163216Y18701715D01*
X2163216Y18685510D01*
X2174087Y18685510D01*
X2174138Y18696025D01*
X2178507Y18705474D01*
X2186127Y18712332D01*
X2199132Y18717158D01*
X2206599Y18717310D01*
X2217369Y18706185D01*
X2221585Y18697956D01*
X2222500Y18685459D01*
X2220315Y18678855D01*
X2214829Y18670168D01*
X2204770Y18664428D01*
X2193442Y18664428D01*
X2185517Y18668085D01*
X2177237Y18676366D01*
X2174087Y18685510D01*
X2163216Y18685510D01*
X2163216Y18676213D01*
X2168245Y18665850D01*
X2173173Y18660719D01*
X2181453Y18655842D01*
X2194407Y18653099D01*
X2204872Y18653099D01*
X2216099Y18655995D01*
X2226310Y18662040D01*
X2233472Y18671032D01*
X2237536Y18681903D01*
X2236825Y18698260D01*
X2229662Y18712688D01*
X2218334Y18724778D01*
X2208580Y18729401D01*
G37*
G36*
X2580690Y18702070D02*
G01*
X2559253Y18700394D01*
X2549144Y18697448D01*
X2543759Y18690894D01*
X2540152Y18680938D01*
X2540152Y18671895D01*
X2550007Y18671895D01*
X2550007Y18678093D01*
X2551887Y18684951D01*
X2557068Y18686983D01*
X2561793Y18687745D01*
X2646324Y18687999D01*
X2646324Y18662040D01*
X2644343Y18645022D01*
X2641701Y18636030D01*
X2636469Y18626378D01*
X2628239Y18620130D01*
X2621534Y18617895D01*
X2606192Y18618758D01*
X2598267Y18622822D01*
X2593238Y18629426D01*
X2589834Y18640348D01*
X2588564Y18653556D01*
X2586634Y18659754D01*
X2582265Y18662650D01*
X2558034Y18663615D01*
X2552598Y18665698D01*
X2550007Y18671895D01*
X2540152Y18671895D01*
X2540152Y18666764D01*
X2544165Y18657925D01*
X2549499Y18655182D01*
X2564892Y18649238D01*
X2575966Y18642025D01*
X2579370Y18638164D01*
X2581910Y18628563D01*
X2586126Y18621756D01*
X2595321Y18614491D01*
X2605227Y18609868D01*
X2615387Y18607481D01*
X2625090Y18608649D01*
X2638450Y18615253D01*
X2651201Y18627699D01*
X2655163Y18636538D01*
X2656027Y18651220D01*
X2653741Y18678093D01*
X2651048Y18692266D01*
X2648915Y18697448D01*
X2642057Y18699276D01*
X2625090Y18701258D01*
G37*
G36*
X2611831Y18663361D02*
G01*
X2599842Y18661684D01*
X2595422Y18658789D01*
X2597150Y18652591D01*
X2603347Y18647359D01*
X2612644Y18644565D01*
X2623718Y18644565D01*
X2629865Y18647156D01*
X2635097Y18653353D01*
X2634538Y18660160D01*
X2629814Y18662396D01*
G37*
G36*
X1958289Y18661532D02*
G01*
X1937512Y18661430D01*
X1924304Y18658128D01*
X1913889Y18654217D01*
X1901596Y18647257D01*
X1891741Y18639637D01*
X1879752Y18626937D01*
X1871014Y18612916D01*
X1865172Y18599150D01*
X1861108Y18583656D01*
X1861049Y18566028D01*
X1871624Y18566028D01*
X1874012Y18578626D01*
X1880311Y18587415D01*
X1886051Y18595848D01*
X1886051Y18600267D01*
X1883156Y18601385D01*
X1880260Y18606922D01*
X1881530Y18612866D01*
X1885848Y18619673D01*
X1898751Y18631509D01*
X1912620Y18640806D01*
X1918004Y18640806D01*
X1925574Y18632830D01*
X1929536Y18636437D01*
X1933346Y18642533D01*
X1941474Y18646495D01*
X1952599Y18648121D01*
X1964893Y18647308D01*
X1979066Y18644362D01*
X1993442Y18638875D01*
X2004568Y18631154D01*
X2014626Y18621451D01*
X2023008Y18609818D01*
X2030577Y18593663D01*
X2034539Y18578931D01*
X2034590Y18554395D01*
X2029358Y18538342D01*
X2024634Y18528893D01*
X2016455Y18516600D01*
X2004568Y18504458D01*
X1990953Y18495568D01*
X1976932Y18489726D01*
X1959254Y18486628D01*
X1942744Y18487847D01*
X1928723Y18491454D01*
X1915261Y18497194D01*
X1902561Y18505474D01*
X1890674Y18517666D01*
X1883968Y18527014D01*
X1876806Y18541187D01*
X1872843Y18553938D01*
X1871624Y18566028D01*
X1861049Y18566028D01*
X1861007Y18553430D01*
X1864410Y18539460D01*
X1869948Y18525083D01*
X1878279Y18510961D01*
X1888947Y18499226D01*
X1904187Y18487745D01*
X1923338Y18478550D01*
X1939391Y18474131D01*
X1968652Y18474131D01*
X1984756Y18478550D01*
X2003602Y18487644D01*
X2015896Y18496940D01*
X2027224Y18509081D01*
X2034235Y18519597D01*
X2040737Y18532652D01*
X2044547Y18543981D01*
X2047748Y18559881D01*
X2046782Y18585535D01*
X2042820Y18600674D01*
X2035200Y18616574D01*
X2026818Y18628258D01*
X2010918Y18643142D01*
X1996084Y18651829D01*
X1986534Y18655792D01*
X1971497Y18659652D01*
G37*
G36*
X2702915Y18633236D02*
G01*
X2699867Y18626175D01*
X2680208Y18526048D01*
X2671622Y18488253D01*
X2661412Y18451423D01*
X2650845Y18419318D01*
X2639466Y18389092D01*
X2625344Y18356986D01*
X2605836Y18318276D01*
X2589072Y18289016D01*
X2574290Y18265394D01*
X2556256Y18238927D01*
X2536393Y18212511D01*
X2519375Y18191734D01*
X2496921Y18166232D01*
X2460752Y18129707D01*
X2430729Y18102935D01*
X2408783Y18085155D01*
X2380437Y18064022D01*
X2354021Y18046039D01*
X2328875Y18030647D01*
X2304897Y18017185D01*
X2267254Y17998440D01*
X2241346Y17987365D01*
X2200046Y17972074D01*
X2165096Y17958714D01*
X2121662Y17947792D01*
X2027224Y17929555D01*
X2005634Y17923967D01*
X2000961Y17920919D01*
X2004364Y17918988D01*
X2051812Y17920055D01*
X2073503Y17923052D01*
X2105609Y17928640D01*
X2138680Y17936108D01*
X2167940Y17943880D01*
X2202535Y17954345D01*
X2226513Y17962930D01*
X2263343Y17978628D01*
X2293569Y17993156D01*
X2323795Y18009260D01*
X2354021Y18027294D01*
X2383739Y18046700D01*
X2415032Y18069407D01*
X2439009Y18088711D01*
X2466390Y18112384D01*
X2503982Y18149214D01*
X2532583Y18181320D01*
X2552547Y18206059D01*
X2573324Y18234304D01*
X2590952Y18260669D01*
X2609138Y18290895D01*
X2629255Y18328690D01*
X2646324Y18365114D01*
X2659278Y18395696D01*
X2668320Y18419318D01*
X2679293Y18451830D01*
X2686812Y18477890D01*
X2692501Y18500547D01*
X2698242Y18528334D01*
X2703068Y18561710D01*
X2705811Y18594984D01*
X2705811Y18628969D01*
X2704642Y18633236D01*
G37*
G36*
X1956612Y18627598D02*
G01*
X1953564Y18627547D01*
X1930095Y18618962D01*
X1916531Y18620232D01*
X1912620Y18615202D01*
X1911451Y18609868D01*
X1907539Y18605703D01*
X1901037Y18606922D01*
X1903272Y18602706D01*
X1902307Y18591885D01*
X1894992Y18575172D01*
X1895026Y18570448D01*
X1910334Y18570448D01*
X1913432Y18582487D01*
X1922018Y18595340D01*
X1931822Y18604230D01*
X1939036Y18609005D01*
X1948840Y18612510D01*
X1966010Y18611900D01*
X1978761Y18605652D01*
X1993392Y18591225D01*
X2000808Y18576188D01*
X2000808Y18559119D01*
X1993646Y18544184D01*
X1979066Y18529655D01*
X1966772Y18523661D01*
X1955139Y18521629D01*
X1944624Y18523813D01*
X1932787Y18529706D01*
X1918462Y18543981D01*
X1911502Y18558154D01*
X1910334Y18570448D01*
X1895026Y18570448D01*
X1895093Y18560999D01*
X1900326Y18545860D01*
X1907692Y18530570D01*
X1918868Y18520206D01*
X1956003Y18502020D01*
X1989429Y18518733D01*
X1999234Y18526099D01*
X2005279Y18533618D01*
X2012340Y18548705D01*
X2017572Y18563844D01*
X2017623Y18574207D01*
X2011730Y18586500D01*
X2004923Y18597829D01*
X1992274Y18610732D01*
X1980793Y18619012D01*
X1966772Y18625667D01*
G37*
G36*
X1208125Y18622873D02*
G01*
X1206703Y18619571D01*
X1205788Y18594476D01*
X1207973Y18566638D01*
X1210767Y18544743D01*
X1215542Y18517565D01*
X1223060Y18484646D01*
X1231696Y18454268D01*
X1244041Y18417438D01*
X1260652Y18375884D01*
X1276604Y18340933D01*
X1288440Y18317311D01*
X1301648Y18292775D01*
X1318717Y18264428D01*
X1335633Y18238927D01*
X1350467Y18218150D01*
X1372819Y18189448D01*
X1398371Y18159628D01*
X1429867Y18126964D01*
X1452981Y18105018D01*
X1482852Y18079364D01*
X1510588Y18058028D01*
X1533296Y18042382D01*
X1556867Y18027446D01*
X1590903Y18007939D01*
X1638096Y17984520D01*
X1677771Y17967604D01*
X1711756Y17954955D01*
X1745792Y17943931D01*
X1765604Y17938242D01*
X1792732Y17931434D01*
X1825091Y17925034D01*
X1846580Y17922087D01*
X1877060Y17919242D01*
X1906574Y17919242D01*
X1912467Y17920462D01*
X1912467Y17922189D01*
X1906270Y17924780D01*
X1891233Y17928640D01*
X1829816Y17940121D01*
X1798675Y17946725D01*
X1760880Y17956276D01*
X1720291Y17968518D01*
X1686306Y17980812D01*
X1660804Y17991226D01*
X1631594Y18004536D01*
X1596542Y18022874D01*
X1568196Y18039486D01*
X1532788Y18062956D01*
X1502664Y18085409D01*
X1484172Y18100040D01*
X1458671Y18121833D01*
X1423060Y18156732D01*
X1395120Y18187924D01*
X1373581Y18214594D01*
X1355496Y18238927D01*
X1333754Y18271032D01*
X1314856Y18302224D01*
X1300378Y18328690D01*
X1282750Y18364555D01*
X1272844Y18387212D01*
X1261008Y18417438D01*
X1249527Y18451423D01*
X1239164Y18492063D01*
X1227886Y18541187D01*
X1220216Y18578017D01*
X1215542Y18602909D01*
X1213459Y18619520D01*
X1210462Y18622873D01*
G37*
G36*
X1298092Y18587872D02*
G01*
X1290167Y18585281D01*
X1281734Y18580354D01*
X1273302Y18570702D01*
X1268323Y18560592D01*
X1267987Y18557290D01*
X1275588Y18557290D01*
X1276908Y18562523D01*
X1284427Y18570702D01*
X1294130Y18574867D01*
X1305661Y18577458D01*
X1315567Y18576544D01*
X1323136Y18573546D01*
X1327556Y18568314D01*
X1332534Y18556274D01*
X1335532Y18545556D01*
X1339342Y18540679D01*
X1345844Y18540679D01*
X1367688Y18545403D01*
X1374241Y18545403D01*
X1376934Y18538901D01*
X1378204Y18525540D01*
X1374597Y18521578D01*
X1367993Y18518276D01*
X1352905Y18514314D01*
X1290777Y18502020D01*
X1289202Y18502985D01*
X1283309Y18521324D01*
X1277975Y18543270D01*
X1275588Y18557290D01*
X1267987Y18557290D01*
X1267206Y18549670D01*
X1270304Y18528385D01*
X1275029Y18511875D01*
X1281684Y18498210D01*
X1288491Y18492978D01*
X1303782Y18492368D01*
X1323187Y18495314D01*
X1345336Y18500293D01*
X1367993Y18506795D01*
X1382115Y18512840D01*
X1386586Y18519444D01*
X1385773Y18537783D01*
X1379321Y18550585D01*
X1370380Y18556579D01*
X1357833Y18557951D01*
X1345133Y18564301D01*
X1327759Y18580303D01*
X1313586Y18587313D01*
G37*
G36*
X1972360Y18566180D02*
G01*
X1965858Y18559322D01*
X1958492Y18553938D01*
X1953463Y18553938D01*
X1945995Y18559322D01*
X1941728Y18560643D01*
X1940610Y18557697D01*
X1943658Y18553023D01*
X1949297Y18550128D01*
X1957882Y18548908D01*
X1969160Y18552312D01*
X1970430Y18551042D01*
X1966315Y18542558D01*
X1967839Y18542558D01*
X1980793Y18554446D01*
X1979980Y18556782D01*
X1972665Y18553023D01*
X1971141Y18553938D01*
X1974951Y18566180D01*
G37*
G36*
X1313230Y18551956D02*
G01*
X1300937Y18551906D01*
X1296212Y18550026D01*
X1291996Y18546064D01*
X1290777Y18539612D01*
X1293114Y18535192D01*
X1300429Y18531941D01*
X1311960Y18532957D01*
X1322679Y18538342D01*
X1325473Y18543524D01*
X1322628Y18548705D01*
G37*
G36*
X2539136Y18532246D02*
G01*
X2531567Y18528690D01*
X2525725Y18523204D01*
X2521458Y18511875D01*
X2520950Y18494908D01*
X2518765Y18486882D01*
X2509062Y18474283D01*
X2505506Y18462752D01*
X2506104Y18457570D01*
X2512872Y18457570D01*
X2518054Y18473166D01*
X2522677Y18479312D01*
X2528316Y18479312D01*
X2543860Y18475198D01*
X2561793Y18475045D01*
X2568397Y18478906D01*
X2569006Y18481954D01*
X2564638Y18486069D01*
X2556154Y18490387D01*
X2537256Y18496584D01*
X2530398Y18499988D01*
X2529230Y18503087D01*
X2529230Y18507557D01*
X2533142Y18517565D01*
X2536291Y18521070D01*
X2548585Y18520156D01*
X2579725Y18511215D01*
X2622702Y18497143D01*
X2624734Y18493333D01*
X2623413Y18485459D01*
X2617774Y18469406D01*
X2608376Y18450509D01*
X2600909Y18440552D01*
X2593848Y18435878D01*
X2583434Y18433796D01*
X2575763Y18435828D01*
X2569514Y18440095D01*
X2565908Y18444972D01*
X2564841Y18452846D01*
X2562504Y18454827D01*
X2552344Y18450560D01*
X2523083Y18450509D01*
X2514955Y18452947D01*
X2512872Y18457570D01*
X2506116Y18457468D01*
X2506726Y18452134D01*
X2510231Y18446343D01*
X2518003Y18442381D01*
X2549499Y18435015D01*
X2562758Y18430392D01*
X2574086Y18425312D01*
X2587294Y18424296D01*
X2599080Y18427293D01*
X2608173Y18431916D01*
X2615438Y18439942D01*
X2622448Y18455233D01*
X2628290Y18473166D01*
X2632151Y18487288D01*
X2632151Y18497346D01*
X2623616Y18506440D01*
X2612237Y18512536D01*
X2588260Y18521578D01*
X2572207Y18526455D01*
X2552547Y18531179D01*
G37*
G36*
X2577439Y18481446D02*
G01*
X2575306Y18476010D01*
X2576169Y18468136D01*
X2580233Y18462447D01*
X2590038Y18457570D01*
X2597861Y18457570D01*
X2604262Y18461888D01*
X2605989Y18466765D01*
X2604668Y18472048D01*
X2598928Y18477382D01*
X2589174Y18480328D01*
G37*
G36*
X1401419Y18426430D02*
G01*
X1389735Y18426277D01*
X1379321Y18423585D01*
X1364234Y18415812D01*
X1354124Y18408091D01*
X1344117Y18397067D01*
X1338427Y18386298D01*
X1335176Y18375020D01*
X1335909Y18364403D01*
X1344676Y18364403D01*
X1344777Y18376595D01*
X1346962Y18383453D01*
X1354175Y18393105D01*
X1365961Y18401995D01*
X1379321Y18409818D01*
X1397254Y18416117D01*
X1411427Y18415457D01*
X1421993Y18410224D01*
X1431950Y18400623D01*
X1439062Y18389650D01*
X1442415Y18377357D01*
X1441348Y18365774D01*
X1435455Y18353836D01*
X1422146Y18341492D01*
X1402943Y18332196D01*
X1389735Y18327878D01*
X1378407Y18327725D01*
X1363675Y18334736D01*
X1352651Y18345251D01*
X1346911Y18356072D01*
X1344676Y18364403D01*
X1335909Y18364403D01*
X1336141Y18360796D01*
X1340967Y18348858D01*
X1349349Y18337174D01*
X1361389Y18325744D01*
X1370634Y18319394D01*
X1379829Y18315940D01*
X1391767Y18315940D01*
X1405788Y18319546D01*
X1418590Y18325287D01*
X1432204Y18334126D01*
X1443532Y18345708D01*
X1448765Y18356427D01*
X1451813Y18368314D01*
X1450644Y18380659D01*
X1447647Y18390971D01*
X1439926Y18404230D01*
X1426819Y18416981D01*
X1411427Y18424347D01*
G37*
G36*
X1424686Y18394273D02*
G01*
X1415237Y18394172D01*
X1401978Y18390412D01*
X1382623Y18381167D01*
X1367028Y18371007D01*
X1359408Y18363488D01*
X1356969Y18357646D01*
X1360068Y18351703D01*
X1364792Y18349925D01*
X1373225Y18349925D01*
X1384808Y18353786D01*
X1398066Y18360491D01*
X1414627Y18370702D01*
X1425092Y18379287D01*
X1430020Y18387618D01*
X1429410Y18391886D01*
G37*
G36*
X2466340Y18376087D02*
G01*
X2462631Y18374715D01*
X2453894Y18365368D01*
X2448610Y18356986D01*
X2444588Y18345556D01*
X2455570Y18345556D01*
X2455570Y18350382D01*
X2459126Y18358205D01*
X2466136Y18365978D01*
X2468118Y18365978D01*
X2476804Y18360898D01*
X2528722Y18327928D01*
X2545283Y18316803D01*
X2545283Y18315127D01*
X2537917Y18305830D01*
X2530652Y18299734D01*
X2521712Y18300496D01*
X2506065Y18309590D01*
X2472283Y18332094D01*
X2460752Y18340781D01*
X2455570Y18345556D01*
X2444588Y18345556D01*
X2444394Y18344997D01*
X2446274Y18339612D01*
X2456027Y18329554D01*
X2469642Y18318734D01*
X2492857Y18303544D01*
X2517394Y18291352D01*
X2529687Y18288203D01*
X2535377Y18289625D01*
X2544318Y18299125D01*
X2551887Y18314263D01*
X2551887Y18318835D01*
X2549144Y18324118D01*
X2534818Y18337530D01*
X2512669Y18352465D01*
X2491486Y18365012D01*
X2472994Y18374258D01*
G37*
G36*
X1516278Y18290387D02*
G01*
X1506829Y18285968D01*
X1487017Y18271032D01*
X1466392Y18251220D01*
X1451457Y18233288D01*
X1445920Y18221655D01*
X1445920Y18216575D01*
X1452067Y18216575D01*
X1491742Y18256758D01*
X1509674Y18273979D01*
X1516837Y18280024D01*
X1520139Y18280024D01*
X1528622Y18274639D01*
X1535633Y18268492D01*
X1535633Y18263920D01*
X1525727Y18254065D01*
X1510131Y18239536D01*
X1508201Y18234507D01*
X1512112Y18228208D01*
X1518869Y18222264D01*
X1523339Y18220232D01*
X1530807Y18225414D01*
X1542694Y18238927D01*
X1551838Y18247918D01*
X1556715Y18247918D01*
X1567738Y18236895D01*
X1567738Y18230189D01*
X1559610Y18219115D01*
X1543812Y18202097D01*
X1518158Y18175935D01*
X1509776Y18170499D01*
X1504950Y18170499D01*
X1498498Y18174411D01*
X1488389Y18183098D01*
X1510030Y18204992D01*
X1512011Y18210225D01*
X1509318Y18215457D01*
X1500733Y18223382D01*
X1498295Y18223382D01*
X1492402Y18219115D01*
X1477721Y18202452D01*
X1472742Y18199912D01*
X1467154Y18202656D01*
X1452067Y18216575D01*
X1445920Y18216575D01*
X1445920Y18214187D01*
X1451305Y18206821D01*
X1459890Y18198947D01*
X1471371Y18190464D01*
X1478788Y18189244D01*
X1481683Y18186044D01*
X1483512Y18177916D01*
X1488846Y18170194D01*
X1498396Y18162981D01*
X1505508Y18160034D01*
X1511808Y18159780D01*
X1519834Y18163946D01*
X1534871Y18175427D01*
X1553870Y18193613D01*
X1564030Y18204230D01*
X1573733Y18216270D01*
X1581251Y18231967D01*
X1578965Y18239486D01*
X1565148Y18253354D01*
X1554480Y18258536D01*
X1545031Y18257266D01*
X1546250Y18264682D01*
X1542846Y18271998D01*
X1529283Y18285663D01*
X1519123Y18290387D01*
G37*
G36*
X2382367Y18274436D02*
G01*
X2376525Y18270778D01*
X2372410Y18265597D01*
X2372512Y18258790D01*
X2377084Y18248376D01*
X2373172Y18245074D01*
X2358745Y18245074D01*
X2347163Y18242330D01*
X2337003Y18237758D01*
X2323338Y18226125D01*
X2323400Y18224246D01*
X2338324Y18224246D01*
X2340813Y18229427D01*
X2347214Y18233745D01*
X2357069Y18233745D01*
X2401722Y18222417D01*
X2412085Y18221198D01*
X2412085Y18223280D01*
X2405989Y18230443D01*
X2382367Y18255132D01*
X2378760Y18261838D01*
X2379929Y18264936D01*
X2384552Y18264936D01*
X2393696Y18257570D01*
X2413711Y18237047D01*
X2431288Y18217235D01*
X2444191Y18200522D01*
X2444191Y18196102D01*
X2441295Y18193207D01*
X2433370Y18191073D01*
X2420112Y18192343D01*
X2407513Y18194985D01*
X2369108Y18204484D01*
X2365806Y18204484D01*
X2365806Y18202757D01*
X2373071Y18193613D01*
X2393442Y18172023D01*
X2400757Y18160746D01*
X2400757Y18157240D01*
X2398115Y18157240D01*
X2386126Y18166080D01*
X2365248Y18187009D01*
X2349093Y18205907D01*
X2340457Y18217692D01*
X2338324Y18224246D01*
X2323400Y18224246D01*
X2335885Y18203976D01*
X2344521Y18192648D01*
X2364384Y18172074D01*
X2381656Y18157748D01*
X2392172Y18151398D01*
X2399741Y18150382D01*
X2405329Y18156021D01*
X2407513Y18171515D01*
X2412593Y18177103D01*
X2439365Y18182590D01*
X2450185Y18187924D01*
X2453995Y18193054D01*
X2453995Y18201640D01*
X2446985Y18215356D01*
X2433370Y18232323D01*
X2399334Y18266359D01*
X2388870Y18273471D01*
G37*
G36*
X1660804Y18178983D02*
G01*
X1653743Y18176240D01*
X1645361Y18170499D01*
X1638706Y18162727D01*
X1632204Y18150179D01*
X1626158Y18130469D01*
X1617370Y18111470D01*
X1617360Y18101818D01*
X1624177Y18101818D01*
X1625346Y18110047D01*
X1628241Y18115635D01*
X1632051Y18117667D01*
X1635760Y18116499D01*
X1638452Y18111266D01*
X1641500Y18098262D01*
X1646174Y18090286D01*
X1652422Y18085511D01*
X1658416Y18084292D01*
X1664157Y18086679D01*
X1665986Y18090083D01*
X1665935Y18094452D01*
X1662125Y18102834D01*
X1645157Y18126913D01*
X1639519Y18138851D01*
X1639570Y18145455D01*
X1644142Y18155361D01*
X1652828Y18164657D01*
X1659382Y18167756D01*
X1667408Y18169382D01*
X1675892Y18168467D01*
X1685645Y18165724D01*
X1700123Y18156072D01*
X1706422Y18147436D01*
X1708607Y18140019D01*
X1707388Y18131078D01*
X1703781Y18125135D01*
X1701038Y18125135D01*
X1698091Y18129351D01*
X1698091Y18142204D01*
X1694484Y18149214D01*
X1689100Y18154294D01*
X1680616Y18158155D01*
X1673047Y18158206D01*
X1666493Y18154904D01*
X1663700Y18149874D01*
X1667357Y18141797D01*
X1681276Y18123712D01*
X1687982Y18110504D01*
X1688896Y18098058D01*
X1683664Y18086425D01*
X1674418Y18077789D01*
X1666443Y18074182D01*
X1654860Y18074132D01*
X1639366Y18081904D01*
X1628139Y18092877D01*
X1624177Y18101818D01*
X1617360Y18101818D01*
X1617319Y18095366D01*
X1622044Y18085968D01*
X1631848Y18076265D01*
X1643380Y18070474D01*
X1657654Y18067324D01*
X1673148Y18068137D01*
X1685747Y18074030D01*
X1695399Y18083072D01*
X1698193Y18088457D01*
X1700072Y18099836D01*
X1704898Y18109539D01*
X1713331Y18121376D01*
X1718310Y18132247D01*
X1718310Y18146369D01*
X1714296Y18155310D01*
X1705254Y18164962D01*
X1692910Y18172226D01*
X1675892Y18178221D01*
G37*
G36*
X2223668Y18169534D02*
G01*
X2213305Y18164657D01*
X2203399Y18157190D01*
X2200554Y18151652D01*
X2200554Y18149468D01*
X2209038Y18149468D01*
X2209038Y18152516D01*
X2222754Y18159425D01*
X2229358Y18161863D01*
X2233422Y18161965D01*
X2238095Y18153938D01*
X2264918Y18100497D01*
X2272030Y18093029D01*
X2275890Y18093029D01*
X2288286Y18098820D01*
X2292604Y18098211D01*
X2293162Y18092521D01*
X2280615Y18084292D01*
X2255774Y18071642D01*
X2234844Y18062854D01*
X2224633Y18060212D01*
X2223211Y18061025D01*
X2223211Y18065394D01*
X2227122Y18070372D01*
X2231237Y18072658D01*
X2241600Y18074792D01*
X2241397Y18081548D01*
X2216810Y18131282D01*
X2209038Y18149468D01*
X2200554Y18149468D01*
X2200554Y18142305D01*
X2206345Y18125897D01*
X2218334Y18098211D01*
X2221534Y18087086D01*
X2221484Y18078399D01*
X2216353Y18067274D01*
X2216353Y18060009D01*
X2218944Y18056860D01*
X2225040Y18054320D01*
X2236063Y18054320D01*
X2251913Y18058333D01*
X2266188Y18064429D01*
X2280361Y18071490D01*
X2291689Y18078246D01*
X2297328Y18082869D01*
X2300630Y18087848D01*
X2300630Y18094045D01*
X2298090Y18100141D01*
X2291029Y18106339D01*
X2282901Y18105932D01*
X2277973Y18109133D01*
X2271471Y18118074D01*
X2257044Y18144490D01*
X2248814Y18156834D01*
X2241143Y18165572D01*
X2233015Y18169534D01*
G37*
G36*
X1955596Y18109082D02*
G01*
X1950720Y18108980D01*
X1942490Y18106390D01*
X1936851Y18101056D01*
X1933498Y18094452D01*
X1932330Y18089372D01*
X1933352Y18086679D01*
X1941779Y18086679D01*
X1941779Y18094452D01*
X1945081Y18101056D01*
X1949805Y18103392D01*
X1954530Y18103392D01*
X1960372Y18099836D01*
X1964334Y18093436D01*
X1965604Y18085562D01*
X1964486Y18081091D01*
X1959610Y18078856D01*
X1952091Y18078856D01*
X1945843Y18081447D01*
X1941779Y18086679D01*
X1933352Y18086679D01*
X1934260Y18084241D01*
X1940052Y18076926D01*
X1948434Y18072049D01*
X1956409Y18070271D01*
X1964689Y18072557D01*
X1971802Y18079313D01*
X1974900Y18089981D01*
X1972716Y18098719D01*
X1965147Y18106237D01*
G37*
G36*
X1981200Y17357598D02*
G01*
X1981200Y17195800D01*
X1997456Y17195800D01*
X1997456Y17225010D01*
X2018792Y17250156D01*
X2051812Y17195800D01*
X2070100Y17195800D01*
X2028443Y17261332D01*
X2065020Y17305528D01*
X2046478Y17305528D01*
X1997964Y17245584D01*
X1997456Y17245584D01*
X1997456Y17357598D01*
G37*
G36*
X2646934Y17357598D02*
G01*
X2646934Y17314418D01*
X2647696Y17295368D01*
X2640431Y17300803D01*
X2633065Y17304918D01*
X2625191Y17307458D01*
X2616200Y17308322D01*
X2611526Y17308068D01*
X2606903Y17307306D01*
X2602433Y17306036D01*
X2598115Y17304258D01*
X2594000Y17302073D01*
X2590038Y17299381D01*
X2586329Y17296282D01*
X2582875Y17292726D01*
X2579725Y17288764D01*
X2576931Y17284446D01*
X2574442Y17279670D01*
X2572359Y17274590D01*
X2570683Y17269104D01*
X2569464Y17263262D01*
X2568702Y17257115D01*
X2568448Y17250664D01*
X2585720Y17250664D01*
X2586024Y17256912D01*
X2586888Y17262805D01*
X2588260Y17268291D01*
X2590139Y17273371D01*
X2592527Y17277994D01*
X2595270Y17282109D01*
X2598420Y17285716D01*
X2601925Y17288713D01*
X2605735Y17291151D01*
X2609850Y17292878D01*
X2614218Y17293996D01*
X2618740Y17294352D01*
X2625801Y17293640D01*
X2632760Y17291507D01*
X2639720Y17287697D01*
X2646934Y17282160D01*
X2646934Y17222724D01*
X2639618Y17216018D01*
X2632354Y17211192D01*
X2624988Y17208246D01*
X2617216Y17207230D01*
X2612390Y17207585D01*
X2607919Y17208601D01*
X2603804Y17210227D01*
X2600147Y17212513D01*
X2596845Y17215408D01*
X2593949Y17218863D01*
X2591460Y17222876D01*
X2589428Y17227448D01*
X2587802Y17232528D01*
X2586634Y17238116D01*
X2585974Y17244161D01*
X2585720Y17250664D01*
X2568448Y17250664D01*
X2568651Y17243958D01*
X2569260Y17237608D01*
X2570276Y17231664D01*
X2571648Y17226178D01*
X2573426Y17221047D01*
X2575509Y17216323D01*
X2577998Y17212005D01*
X2580741Y17208144D01*
X2583891Y17204690D01*
X2587294Y17201692D01*
X2591003Y17199152D01*
X2595016Y17197070D01*
X2599283Y17195393D01*
X2603855Y17194225D01*
X2608630Y17193514D01*
X2613660Y17193260D01*
X2618638Y17193564D01*
X2623464Y17194530D01*
X2628087Y17195952D01*
X2632506Y17197882D01*
X2636672Y17200219D01*
X2640634Y17202912D01*
X2644292Y17205858D01*
X2647696Y17209008D01*
X2648204Y17209008D01*
X2649728Y17195800D01*
X2663444Y17195800D01*
X2663444Y17357598D01*
G37*
G36*
X1542034Y17351756D02*
G01*
X1537360Y17350994D01*
X1533753Y17348758D01*
X1531416Y17345202D01*
X1530604Y17340580D01*
X1531416Y17335804D01*
X1533753Y17332198D01*
X1537360Y17329912D01*
X1542034Y17329150D01*
X1546606Y17329912D01*
X1550212Y17332198D01*
X1552600Y17335804D01*
X1553464Y17340580D01*
X1552600Y17345202D01*
X1550212Y17348758D01*
X1546606Y17350994D01*
G37*
G36*
X1832102Y17351756D02*
G01*
X1827377Y17350994D01*
X1823669Y17348758D01*
X1821281Y17345202D01*
X1820418Y17340580D01*
X1821281Y17335804D01*
X1823669Y17332198D01*
X1827377Y17329912D01*
X1832102Y17329150D01*
X1836572Y17329912D01*
X1840179Y17332198D01*
X1842617Y17335804D01*
X1843532Y17340580D01*
X1842617Y17345202D01*
X1840179Y17348758D01*
X1836572Y17350994D01*
G37*
G36*
X1677416Y17347184D02*
G01*
X1670964Y17346828D01*
X1664817Y17345863D01*
X1659077Y17344288D01*
X1653743Y17342154D01*
X1648866Y17339411D01*
X1644548Y17336211D01*
X1640687Y17332553D01*
X1637487Y17328438D01*
X1634896Y17323917D01*
X1633016Y17319040D01*
X1631848Y17313859D01*
X1631442Y17308322D01*
X1632153Y17300752D01*
X1634236Y17294148D01*
X1637385Y17288459D01*
X1641398Y17283582D01*
X1646072Y17279416D01*
X1651152Y17275911D01*
X1656435Y17272965D01*
X1661668Y17270476D01*
X1688439Y17258741D01*
X1693214Y17256353D01*
X1697532Y17253813D01*
X1701292Y17250968D01*
X1704390Y17247666D01*
X1706676Y17243806D01*
X1708150Y17239183D01*
X1708657Y17233646D01*
X1708099Y17228159D01*
X1706372Y17223232D01*
X1703628Y17218812D01*
X1699869Y17215104D01*
X1695196Y17212106D01*
X1689607Y17209871D01*
X1683156Y17208449D01*
X1675892Y17207992D01*
X1670050Y17208347D01*
X1664258Y17209312D01*
X1658670Y17210938D01*
X1653235Y17213122D01*
X1648053Y17215815D01*
X1643125Y17219015D01*
X1638503Y17222724D01*
X1634236Y17226788D01*
X1624076Y17215358D01*
X1629156Y17210481D01*
X1634642Y17206112D01*
X1640535Y17202353D01*
X1646834Y17199152D01*
X1653539Y17196612D01*
X1660601Y17194784D01*
X1668068Y17193666D01*
X1675892Y17193260D01*
X1683257Y17193615D01*
X1690166Y17194733D01*
X1696516Y17196460D01*
X1702358Y17198848D01*
X1707591Y17201845D01*
X1712214Y17205350D01*
X1716227Y17209312D01*
X1719529Y17213732D01*
X1722170Y17218558D01*
X1724101Y17223740D01*
X1725269Y17229175D01*
X1725675Y17234916D01*
X1725066Y17242637D01*
X1723288Y17249394D01*
X1720443Y17255236D01*
X1716684Y17260265D01*
X1712163Y17264583D01*
X1706930Y17268342D01*
X1701139Y17271644D01*
X1694942Y17274540D01*
X1668983Y17285614D01*
X1660448Y17290084D01*
X1656638Y17292828D01*
X1653336Y17296028D01*
X1650746Y17299838D01*
X1649069Y17304308D01*
X1648460Y17309592D01*
X1649018Y17314570D01*
X1650542Y17319040D01*
X1653082Y17322952D01*
X1656486Y17326254D01*
X1660652Y17328896D01*
X1665579Y17330826D01*
X1671218Y17332045D01*
X1677416Y17332452D01*
X1682597Y17332198D01*
X1687474Y17331436D01*
X1692097Y17330216D01*
X1696466Y17328591D01*
X1700580Y17326508D01*
X1704492Y17324070D01*
X1708200Y17321326D01*
X1711706Y17318228D01*
X1720596Y17328896D01*
X1716532Y17332756D01*
X1712061Y17336262D01*
X1707134Y17339360D01*
X1701850Y17342053D01*
X1696212Y17344186D01*
X1690217Y17345812D01*
X1683969Y17346828D01*
G37*
G36*
X2849118Y17347184D02*
G01*
X2842412Y17346777D01*
X2836214Y17345609D01*
X2830423Y17343729D01*
X2825038Y17341189D01*
X2819908Y17338040D01*
X2815031Y17334331D01*
X2810306Y17330064D01*
X2805684Y17325340D01*
X2815590Y17316196D01*
X2818841Y17319802D01*
X2822346Y17323104D01*
X2826054Y17326102D01*
X2829915Y17328692D01*
X2834030Y17330775D01*
X2838297Y17332401D01*
X2842768Y17333366D01*
X2847340Y17333722D01*
X2854096Y17333112D01*
X2859887Y17331385D01*
X2864764Y17328642D01*
X2868676Y17324933D01*
X2871724Y17320412D01*
X2873857Y17315180D01*
X2875127Y17309338D01*
X2875534Y17302988D01*
X2875381Y17299127D01*
X2874111Y17291100D01*
X2872943Y17286986D01*
X2871470Y17282769D01*
X2869692Y17278502D01*
X2867558Y17274082D01*
X2865069Y17269561D01*
X2859024Y17260265D01*
X2851556Y17250460D01*
X2847289Y17245330D01*
X2837586Y17234763D01*
X2826410Y17223587D01*
X2806700Y17205706D01*
X2806700Y17195800D01*
X2898902Y17195800D01*
X2898902Y17210024D01*
X2850337Y17209922D01*
X2831846Y17208754D01*
X2842361Y17218914D01*
X2852013Y17228921D01*
X2860802Y17238675D01*
X2868625Y17248276D01*
X2875432Y17257776D01*
X2881172Y17267123D01*
X2885694Y17276368D01*
X2887522Y17280991D01*
X2889046Y17285563D01*
X2890215Y17290135D01*
X2891078Y17294656D01*
X2891637Y17299228D01*
X2891790Y17303750D01*
X2891434Y17310150D01*
X2890469Y17316145D01*
X2888843Y17321682D01*
X2886608Y17326762D01*
X2883763Y17331334D01*
X2880360Y17335347D01*
X2876397Y17338852D01*
X2871927Y17341799D01*
X2866948Y17344136D01*
X2861462Y17345812D01*
X2855518Y17346828D01*
G37*
G36*
X1189228Y17344644D02*
G01*
X1189228Y17195800D01*
X1205992Y17195800D01*
X1205992Y17266920D01*
X1277620Y17266920D01*
X1277620Y17195800D01*
X1294638Y17195800D01*
X1294638Y17344644D01*
X1277620Y17344644D01*
X1277620Y17281652D01*
X1205992Y17281652D01*
X1205992Y17344644D01*
G37*
G36*
X2138172Y17344644D02*
G01*
X2138172Y17331182D01*
X2178812Y17331182D01*
X2187397Y17330826D01*
X2194814Y17329810D01*
X2201113Y17328032D01*
X2206244Y17325492D01*
X2210257Y17322038D01*
X2213102Y17317669D01*
X2214829Y17312386D01*
X2215388Y17306036D01*
X2214880Y17300498D01*
X2213305Y17295520D01*
X2210612Y17291202D01*
X2206701Y17287544D01*
X2201519Y17284598D01*
X2195017Y17282414D01*
X2187143Y17281093D01*
X2177796Y17280636D01*
X2155190Y17280636D01*
X2155190Y17331182D01*
X2138172Y17331182D01*
X2138172Y17267682D01*
X2181860Y17267682D01*
X2188413Y17267478D01*
X2194458Y17266970D01*
X2199995Y17266056D01*
X2205024Y17264735D01*
X2209495Y17263059D01*
X2213406Y17260976D01*
X2216759Y17258538D01*
X2219502Y17255642D01*
X2221687Y17252340D01*
X2223262Y17248682D01*
X2224227Y17244517D01*
X2224532Y17239996D01*
X2224176Y17234916D01*
X2223211Y17230293D01*
X2221585Y17226178D01*
X2219350Y17222520D01*
X2216505Y17219371D01*
X2213102Y17216628D01*
X2209139Y17214342D01*
X2204669Y17212513D01*
X2199690Y17211040D01*
X2194204Y17210074D01*
X2188260Y17209465D01*
X2181860Y17209262D01*
X2155190Y17209262D01*
X2155190Y17267682D01*
X2138172Y17267682D01*
X2138172Y17195800D01*
X2184654Y17195800D01*
X2190750Y17195952D01*
X2196642Y17196460D01*
X2202180Y17197324D01*
X2207463Y17198492D01*
X2212441Y17200016D01*
X2217013Y17201896D01*
X2221280Y17204131D01*
X2225192Y17206671D01*
X2228697Y17209566D01*
X2231796Y17212767D01*
X2234488Y17216323D01*
X2236673Y17220234D01*
X2238451Y17224451D01*
X2239721Y17229074D01*
X2240534Y17233950D01*
X2240788Y17239234D01*
X2240229Y17246447D01*
X2238552Y17252899D01*
X2235860Y17258538D01*
X2232304Y17263414D01*
X2227834Y17267529D01*
X2222550Y17270831D01*
X2216607Y17273320D01*
X2210054Y17275048D01*
X2210054Y17275810D01*
X2215083Y17277994D01*
X2219502Y17280839D01*
X2223312Y17284242D01*
X2226411Y17288205D01*
X2228900Y17292675D01*
X2230678Y17297501D01*
X2231796Y17302632D01*
X2232152Y17308068D01*
X2231745Y17314214D01*
X2230475Y17319752D01*
X2228443Y17324730D01*
X2225700Y17329048D01*
X2222246Y17332858D01*
X2218080Y17336058D01*
X2213305Y17338751D01*
X2207971Y17340935D01*
X2202027Y17342561D01*
X2195626Y17343729D01*
X2188718Y17344440D01*
X2181352Y17344644D01*
G37*
G36*
X2682748Y17344644D02*
G01*
X2730500Y17195800D01*
X2749804Y17195800D01*
X2797556Y17344644D01*
X2780284Y17344644D01*
X2742996Y17219726D01*
X2740914Y17213326D01*
X2740152Y17213326D01*
X2700528Y17344644D01*
G37*
G36*
X1754378Y17336516D02*
G01*
X1752346Y17305528D01*
X1735074Y17304512D01*
X1735074Y17291812D01*
X1751838Y17291812D01*
X1751838Y17228820D01*
X1752193Y17221149D01*
X1753362Y17214240D01*
X1755393Y17208195D01*
X1758391Y17203064D01*
X1762455Y17198898D01*
X1767687Y17195800D01*
X1774189Y17193920D01*
X1782064Y17193260D01*
X1786839Y17193615D01*
X1791868Y17194530D01*
X1801622Y17197324D01*
X1798320Y17209770D01*
X1795424Y17208652D01*
X1792173Y17207687D01*
X1788820Y17206976D01*
X1785620Y17206722D01*
X1777339Y17208195D01*
X1772005Y17212462D01*
X1769211Y17219269D01*
X1768348Y17228312D01*
X1768348Y17291812D01*
X1798574Y17291812D01*
X1798574Y17305528D01*
X1768348Y17305528D01*
X1768348Y17336516D01*
G37*
G36*
X1376172Y17308322D02*
G01*
X1371193Y17308068D01*
X1366367Y17307356D01*
X1361643Y17306137D01*
X1357071Y17304461D01*
X1352702Y17302327D01*
X1348536Y17299736D01*
X1344625Y17296688D01*
X1341018Y17293183D01*
X1337716Y17289322D01*
X1334770Y17285004D01*
X1332179Y17280229D01*
X1329994Y17275098D01*
X1328216Y17269561D01*
X1326946Y17263618D01*
X1326134Y17257318D01*
X1325880Y17250664D01*
X1342898Y17250664D01*
X1343202Y17256963D01*
X1344015Y17262906D01*
X1345336Y17268444D01*
X1347165Y17273524D01*
X1349451Y17278096D01*
X1352194Y17282210D01*
X1355344Y17285766D01*
X1358849Y17288764D01*
X1362710Y17291151D01*
X1366926Y17292929D01*
X1371396Y17293996D01*
X1376172Y17294352D01*
X1380998Y17293996D01*
X1385519Y17292929D01*
X1389786Y17291151D01*
X1393647Y17288764D01*
X1397203Y17285766D01*
X1400352Y17282210D01*
X1403096Y17278096D01*
X1405432Y17273524D01*
X1407261Y17268444D01*
X1408582Y17262906D01*
X1409395Y17256963D01*
X1409700Y17250664D01*
X1409395Y17244314D01*
X1408582Y17238319D01*
X1407261Y17232782D01*
X1405432Y17227702D01*
X1403096Y17223079D01*
X1400352Y17219015D01*
X1397203Y17215459D01*
X1393647Y17212513D01*
X1389786Y17210125D01*
X1385519Y17208398D01*
X1380998Y17207331D01*
X1376172Y17206976D01*
X1371396Y17207331D01*
X1366926Y17208398D01*
X1362710Y17210125D01*
X1358849Y17212513D01*
X1355344Y17215459D01*
X1352194Y17219015D01*
X1349451Y17223079D01*
X1347165Y17227702D01*
X1345336Y17232782D01*
X1344015Y17238319D01*
X1343202Y17244314D01*
X1342898Y17250664D01*
X1325880Y17250664D01*
X1326134Y17244009D01*
X1326946Y17237760D01*
X1328216Y17231868D01*
X1329994Y17226381D01*
X1332179Y17221250D01*
X1334770Y17216526D01*
X1337716Y17212208D01*
X1341018Y17208347D01*
X1344625Y17204893D01*
X1348536Y17201845D01*
X1352702Y17199254D01*
X1357071Y17197120D01*
X1361643Y17195444D01*
X1366367Y17194225D01*
X1371193Y17193514D01*
X1376172Y17193260D01*
X1381201Y17193514D01*
X1386078Y17194225D01*
X1390853Y17195444D01*
X1395476Y17197120D01*
X1399895Y17199254D01*
X1404061Y17201845D01*
X1408023Y17204893D01*
X1411681Y17208347D01*
X1414983Y17212208D01*
X1417980Y17216526D01*
X1420622Y17221250D01*
X1422806Y17226381D01*
X1424584Y17231868D01*
X1425905Y17237760D01*
X1426718Y17244009D01*
X1426972Y17250664D01*
X1426718Y17257318D01*
X1425905Y17263618D01*
X1424584Y17269561D01*
X1422806Y17275098D01*
X1420622Y17280229D01*
X1417980Y17285004D01*
X1414983Y17289322D01*
X1411681Y17293234D01*
X1408023Y17296688D01*
X1404061Y17299736D01*
X1399895Y17302327D01*
X1395476Y17304461D01*
X1390853Y17306137D01*
X1386078Y17307356D01*
X1381201Y17308068D01*
G37*
G36*
X1503426Y17308322D02*
G01*
X1498803Y17307915D01*
X1494383Y17306696D01*
X1490116Y17304715D01*
X1486052Y17302022D01*
X1482191Y17298720D01*
X1478635Y17294809D01*
X1475384Y17290389D01*
X1472438Y17285462D01*
X1471676Y17285462D01*
X1470152Y17305528D01*
X1456690Y17305528D01*
X1456690Y17195800D01*
X1473200Y17195800D01*
X1473200Y17267428D01*
X1476197Y17274032D01*
X1479499Y17279518D01*
X1483004Y17283988D01*
X1486611Y17287544D01*
X1490370Y17290186D01*
X1494078Y17291964D01*
X1497787Y17292980D01*
X1501394Y17293336D01*
X1506880Y17292929D01*
X1511808Y17291558D01*
X1515110Y17306036D01*
X1512366Y17307153D01*
X1509623Y17307864D01*
X1506728Y17308220D01*
G37*
G36*
X1922018Y17308322D02*
G01*
X1916887Y17308068D01*
X1911807Y17307356D01*
X1906930Y17306137D01*
X1902206Y17304461D01*
X1897684Y17302327D01*
X1893366Y17299736D01*
X1889353Y17296688D01*
X1885594Y17293183D01*
X1882190Y17289322D01*
X1879142Y17285004D01*
X1876450Y17280229D01*
X1874215Y17275098D01*
X1872386Y17269561D01*
X1871065Y17263618D01*
X1870252Y17257318D01*
X1869948Y17250664D01*
X1870202Y17244009D01*
X1870964Y17237760D01*
X1872183Y17231868D01*
X1873859Y17226381D01*
X1875942Y17221250D01*
X1878431Y17216526D01*
X1881327Y17212208D01*
X1884578Y17208347D01*
X1888185Y17204893D01*
X1892046Y17201845D01*
X1896262Y17199254D01*
X1900682Y17197120D01*
X1905406Y17195444D01*
X1910334Y17194225D01*
X1915464Y17193514D01*
X1920748Y17193260D01*
X1925726Y17193514D01*
X1930603Y17194174D01*
X1935327Y17195342D01*
X1939848Y17196917D01*
X1944268Y17198898D01*
X1948484Y17201286D01*
X1952498Y17204080D01*
X1956307Y17207230D01*
X1948942Y17218152D01*
X1943354Y17213834D01*
X1936953Y17210278D01*
X1929892Y17207890D01*
X1922272Y17206976D01*
X1917141Y17207331D01*
X1912315Y17208398D01*
X1907844Y17210125D01*
X1903730Y17212513D01*
X1900021Y17215459D01*
X1896719Y17219015D01*
X1893824Y17223079D01*
X1891436Y17227702D01*
X1889506Y17232782D01*
X1888134Y17238319D01*
X1887270Y17244314D01*
X1886966Y17250664D01*
X1887270Y17256963D01*
X1888185Y17262906D01*
X1889658Y17268444D01*
X1891690Y17273524D01*
X1894179Y17278096D01*
X1897176Y17282210D01*
X1900580Y17285766D01*
X1904339Y17288764D01*
X1908505Y17291151D01*
X1912975Y17292929D01*
X1917750Y17293996D01*
X1922780Y17294352D01*
X1929282Y17293640D01*
X1935124Y17291608D01*
X1940458Y17288459D01*
X1945386Y17284446D01*
X1954275Y17295114D01*
X1947925Y17300194D01*
X1940610Y17304359D01*
X1932076Y17307255D01*
G37*
G36*
X2311146Y17308322D02*
G01*
X2306167Y17308068D01*
X2301341Y17307356D01*
X2296617Y17306137D01*
X2292045Y17304461D01*
X2287676Y17302327D01*
X2283510Y17299736D01*
X2279599Y17296688D01*
X2275992Y17293183D01*
X2272690Y17289322D01*
X2269744Y17285004D01*
X2267153Y17280229D01*
X2264968Y17275098D01*
X2263190Y17269561D01*
X2261920Y17263618D01*
X2261108Y17257318D01*
X2260854Y17250664D01*
X2277872Y17250664D01*
X2278176Y17256963D01*
X2278989Y17262906D01*
X2280310Y17268444D01*
X2282139Y17273524D01*
X2284425Y17278096D01*
X2287168Y17282210D01*
X2290318Y17285766D01*
X2293823Y17288764D01*
X2297684Y17291151D01*
X2301900Y17292929D01*
X2306370Y17293996D01*
X2311146Y17294352D01*
X2315972Y17293996D01*
X2320493Y17292929D01*
X2324760Y17291151D01*
X2328621Y17288764D01*
X2332177Y17285766D01*
X2335326Y17282210D01*
X2338070Y17278096D01*
X2340406Y17273524D01*
X2342235Y17268444D01*
X2343556Y17262906D01*
X2344369Y17256963D01*
X2344674Y17250664D01*
X2344369Y17244314D01*
X2343556Y17238319D01*
X2342235Y17232782D01*
X2340406Y17227702D01*
X2338070Y17223079D01*
X2335326Y17219015D01*
X2332177Y17215459D01*
X2328621Y17212513D01*
X2324760Y17210125D01*
X2320493Y17208398D01*
X2315972Y17207331D01*
X2311146Y17206976D01*
X2306370Y17207331D01*
X2301900Y17208398D01*
X2297684Y17210125D01*
X2293823Y17212513D01*
X2290318Y17215459D01*
X2287168Y17219015D01*
X2284425Y17223079D01*
X2282139Y17227702D01*
X2280310Y17232782D01*
X2278989Y17238319D01*
X2278176Y17244314D01*
X2277872Y17250664D01*
X2260854Y17250664D01*
X2261108Y17244009D01*
X2261920Y17237760D01*
X2263190Y17231868D01*
X2264968Y17226381D01*
X2267153Y17221250D01*
X2269744Y17216526D01*
X2272690Y17212208D01*
X2275992Y17208347D01*
X2279599Y17204893D01*
X2283510Y17201845D01*
X2287676Y17199254D01*
X2292045Y17197120D01*
X2296617Y17195444D01*
X2301341Y17194225D01*
X2306167Y17193514D01*
X2311146Y17193260D01*
X2316175Y17193514D01*
X2321052Y17194225D01*
X2325827Y17195444D01*
X2330399Y17197120D01*
X2334818Y17199254D01*
X2338984Y17201845D01*
X2342896Y17204893D01*
X2346502Y17208347D01*
X2349804Y17212208D01*
X2352802Y17216526D01*
X2355392Y17221250D01*
X2357577Y17226381D01*
X2359355Y17231868D01*
X2360625Y17237760D01*
X2361438Y17244009D01*
X2361692Y17250664D01*
X2361438Y17257318D01*
X2360625Y17263618D01*
X2359355Y17269561D01*
X2357577Y17275098D01*
X2355392Y17280229D01*
X2352802Y17285004D01*
X2349804Y17289322D01*
X2346502Y17293234D01*
X2342896Y17296688D01*
X2338984Y17299736D01*
X2334818Y17302327D01*
X2330399Y17304461D01*
X2325827Y17306137D01*
X2321052Y17307356D01*
X2316175Y17308068D01*
G37*
G36*
X2428748Y17308322D02*
G01*
X2422194Y17307966D01*
X2415895Y17306950D01*
X2409901Y17305426D01*
X2404262Y17303445D01*
X2399030Y17301210D01*
X2394204Y17298771D01*
X2386076Y17293844D01*
X2392680Y17282414D01*
X2399538Y17286782D01*
X2407513Y17290694D01*
X2416352Y17293539D01*
X2425954Y17294606D01*
X2432456Y17293945D01*
X2437688Y17292066D01*
X2441803Y17289170D01*
X2444902Y17285411D01*
X2447086Y17280940D01*
X2448458Y17275962D01*
X2449169Y17270628D01*
X2449322Y17265142D01*
X2432913Y17262856D01*
X2425598Y17261433D01*
X2418842Y17259858D01*
X2412695Y17258080D01*
X2407158Y17256150D01*
X2402128Y17253966D01*
X2397658Y17251629D01*
X2393746Y17249038D01*
X2390394Y17246193D01*
X2387549Y17243145D01*
X2385263Y17239843D01*
X2383485Y17236287D01*
X2382266Y17232477D01*
X2381504Y17228362D01*
X2381309Y17225010D01*
X2397252Y17225010D01*
X2397556Y17228616D01*
X2398420Y17232020D01*
X2399944Y17235220D01*
X2402128Y17238167D01*
X2405024Y17240910D01*
X2408732Y17243399D01*
X2413203Y17245685D01*
X2418537Y17247768D01*
X2424785Y17249597D01*
X2431948Y17251273D01*
X2440127Y17252746D01*
X2449322Y17253966D01*
X2449322Y17221708D01*
X2441194Y17215154D01*
X2433472Y17210379D01*
X2425700Y17207433D01*
X2417572Y17206468D01*
X2409698Y17207484D01*
X2403195Y17210786D01*
X2398877Y17216526D01*
X2397252Y17225010D01*
X2381309Y17225010D01*
X2381250Y17223994D01*
X2381910Y17216983D01*
X2383739Y17210836D01*
X2386634Y17205553D01*
X2390495Y17201184D01*
X2395220Y17197781D01*
X2400655Y17195292D01*
X2406700Y17193768D01*
X2413254Y17193260D01*
X2418334Y17193564D01*
X2423312Y17194530D01*
X2428189Y17196003D01*
X2432913Y17197933D01*
X2437485Y17200270D01*
X2441854Y17203013D01*
X2446070Y17206010D01*
X2450084Y17209262D01*
X2450846Y17209262D01*
X2452116Y17195800D01*
X2465832Y17195800D01*
X2465832Y17263872D01*
X2465628Y17270272D01*
X2464917Y17276318D01*
X2463749Y17281956D01*
X2462072Y17287138D01*
X2459888Y17291812D01*
X2457196Y17295977D01*
X2453944Y17299635D01*
X2450084Y17302683D01*
X2445664Y17305070D01*
X2440686Y17306848D01*
X2435047Y17307966D01*
G37*
G36*
X2548636Y17308322D02*
G01*
X2544114Y17307915D01*
X2539746Y17306696D01*
X2535478Y17304715D01*
X2531414Y17302022D01*
X2527604Y17298720D01*
X2523998Y17294809D01*
X2520645Y17290389D01*
X2517648Y17285462D01*
X2517140Y17285462D01*
X2515362Y17305528D01*
X2501900Y17305528D01*
X2501900Y17195800D01*
X2518410Y17195800D01*
X2518410Y17267428D01*
X2521458Y17274032D01*
X2524760Y17279518D01*
X2528265Y17283988D01*
X2531922Y17287544D01*
X2535682Y17290186D01*
X2539390Y17291964D01*
X2543098Y17292980D01*
X2546604Y17293336D01*
X2552090Y17292929D01*
X2557018Y17291558D01*
X2560320Y17306036D01*
X2557678Y17307153D01*
X2554935Y17307864D01*
X2551988Y17308220D01*
G37*
G36*
X1533652Y17305528D02*
G01*
X1533652Y17195800D01*
X1550162Y17195800D01*
X1550162Y17305528D01*
G37*
G36*
X1823720Y17305528D02*
G01*
X1823720Y17195800D01*
X1840230Y17195800D01*
X1840230Y17305528D01*
G37*
G36*
X1834642Y17055338D02*
G01*
X1827326Y17054728D01*
X1821027Y17052899D01*
X1815693Y17049902D01*
X1811324Y17045838D01*
X1807972Y17040758D01*
X1805584Y17034662D01*
X1804111Y17027652D01*
X1803654Y17019778D01*
X1803654Y17000728D01*
X1788668Y16999712D01*
X1788668Y16987012D01*
X1803654Y16987012D01*
X1803654Y16891000D01*
X1820164Y16891000D01*
X1820164Y16987012D01*
X1843786Y16987012D01*
X1843786Y17000728D01*
X1820164Y17000728D01*
X1820164Y17019524D01*
X1821129Y17029226D01*
X1824075Y17036237D01*
X1829054Y17040453D01*
X1836166Y17041876D01*
X1839163Y17041672D01*
X1842312Y17041114D01*
X1845513Y17040148D01*
X1848612Y17038828D01*
X1852422Y17051782D01*
X1848408Y17053306D01*
X1843989Y17054423D01*
X1839366Y17055084D01*
G37*
G36*
X2120900Y17042384D02*
G01*
X2114194Y17041977D01*
X2107946Y17040809D01*
X2102154Y17038929D01*
X2096719Y17036389D01*
X2091588Y17033240D01*
X2086660Y17029531D01*
X2081987Y17025264D01*
X2077466Y17020540D01*
X2087372Y17011396D01*
X2090623Y17015002D01*
X2094128Y17018304D01*
X2097786Y17021302D01*
X2101697Y17023892D01*
X2105761Y17025975D01*
X2109978Y17027601D01*
X2114346Y17028566D01*
X2118868Y17028922D01*
X2125624Y17028312D01*
X2131466Y17026585D01*
X2136343Y17023842D01*
X2140305Y17020133D01*
X2143404Y17015612D01*
X2145588Y17010380D01*
X2146909Y17004538D01*
X2147316Y16998188D01*
X2147163Y16994327D01*
X2146655Y16990364D01*
X2145842Y16986300D01*
X2144725Y16982186D01*
X2143252Y16977969D01*
X2139289Y16969282D01*
X2133904Y16960189D01*
X2127148Y16950588D01*
X2118969Y16940530D01*
X2109266Y16929963D01*
X2098090Y16918787D01*
X2078482Y16900906D01*
X2078482Y16891000D01*
X2170684Y16891000D01*
X2170684Y16905224D01*
X2122119Y16905122D01*
X2103628Y16903954D01*
X2114143Y16914114D01*
X2123795Y16924121D01*
X2132584Y16933875D01*
X2140407Y16943476D01*
X2147214Y16952976D01*
X2152954Y16962323D01*
X2157476Y16971568D01*
X2159304Y16976191D01*
X2160828Y16980763D01*
X2161997Y16985335D01*
X2162860Y16989856D01*
X2163419Y16994428D01*
X2163572Y16998950D01*
X2163216Y17005350D01*
X2162251Y17011345D01*
X2160625Y17016882D01*
X2158390Y17021962D01*
X2155545Y17026534D01*
X2152142Y17030547D01*
X2148179Y17034052D01*
X2143709Y17036999D01*
X2138730Y17039336D01*
X2133244Y17041012D01*
X2127300Y17042028D01*
G37*
G36*
X1511046Y17039844D02*
G01*
X1511046Y16935450D01*
X1510639Y16927525D01*
X1509522Y16920768D01*
X1507591Y16915180D01*
X1504899Y16910761D01*
X1501444Y16907357D01*
X1497228Y16905020D01*
X1492199Y16903649D01*
X1486408Y16903192D01*
X1478483Y16904106D01*
X1471472Y16907002D01*
X1465326Y16912183D01*
X1459992Y16919956D01*
X1447800Y16911574D01*
X1451254Y16906189D01*
X1455166Y16901515D01*
X1459484Y16897553D01*
X1464259Y16894302D01*
X1469491Y16891762D01*
X1475181Y16889933D01*
X1481328Y16888815D01*
X1487932Y16888460D01*
X1494688Y16888866D01*
X1500784Y16890085D01*
X1506169Y16892016D01*
X1510893Y16894657D01*
X1515008Y16897908D01*
X1518513Y16901769D01*
X1521460Y16906138D01*
X1523796Y16910964D01*
X1525574Y16916196D01*
X1526844Y16921835D01*
X1527556Y16927728D01*
X1527810Y16933926D01*
X1527810Y17039844D01*
G37*
G36*
X1901443Y17039844D02*
G01*
X1895348Y17036491D01*
X1888388Y17033697D01*
X1880463Y17031462D01*
X1871472Y17029684D01*
X1871472Y17018762D01*
X1897634Y17018762D01*
X1897634Y16904716D01*
X1864360Y16904716D01*
X1864360Y16891000D01*
X1944370Y16891000D01*
X1944370Y16904716D01*
X1914143Y16904716D01*
X1914143Y17039844D01*
G37*
G36*
X2013204Y17039844D02*
G01*
X2006955Y17036491D01*
X1999996Y17033697D01*
X1992071Y17031462D01*
X1982978Y17029684D01*
X1982978Y17018762D01*
X2009139Y17018762D01*
X2009139Y16904716D01*
X1975866Y16904716D01*
X1975866Y16891000D01*
X2055875Y16891000D01*
X2055875Y16904716D01*
X2025650Y16904716D01*
X2025650Y17039844D01*
G37*
G36*
X1609090Y17003522D02*
G01*
X1604111Y17003268D01*
X1599285Y17002556D01*
X1594561Y17001337D01*
X1589989Y16999661D01*
X1585620Y16997527D01*
X1581454Y16994936D01*
X1577543Y16991888D01*
X1573936Y16988383D01*
X1570634Y16984522D01*
X1567688Y16980204D01*
X1565097Y16975429D01*
X1562912Y16970298D01*
X1561134Y16964761D01*
X1559864Y16958818D01*
X1559052Y16952518D01*
X1558798Y16945864D01*
X1575816Y16945864D01*
X1576120Y16952163D01*
X1576933Y16958106D01*
X1578254Y16963644D01*
X1580083Y16968724D01*
X1582369Y16973296D01*
X1585112Y16977410D01*
X1588262Y16980966D01*
X1591767Y16983964D01*
X1595628Y16986351D01*
X1599844Y16988129D01*
X1604314Y16989196D01*
X1609090Y16989552D01*
X1613916Y16989196D01*
X1618437Y16988129D01*
X1622704Y16986351D01*
X1626565Y16983964D01*
X1630121Y16980966D01*
X1633270Y16977410D01*
X1636014Y16973296D01*
X1638350Y16968724D01*
X1640179Y16963644D01*
X1641500Y16958106D01*
X1642313Y16952163D01*
X1642618Y16945864D01*
X1642313Y16939514D01*
X1641500Y16933519D01*
X1640179Y16927982D01*
X1638350Y16922902D01*
X1636014Y16918279D01*
X1633270Y16914215D01*
X1630121Y16910659D01*
X1626565Y16907713D01*
X1622704Y16905325D01*
X1618437Y16903598D01*
X1613916Y16902531D01*
X1609090Y16902176D01*
X1604314Y16902531D01*
X1599844Y16903598D01*
X1595628Y16905325D01*
X1591767Y16907713D01*
X1588262Y16910659D01*
X1585112Y16914215D01*
X1582369Y16918279D01*
X1580083Y16922902D01*
X1578254Y16927982D01*
X1576933Y16933519D01*
X1576120Y16939514D01*
X1575816Y16945864D01*
X1558798Y16945864D01*
X1559052Y16939209D01*
X1559864Y16932960D01*
X1561134Y16927068D01*
X1562912Y16921581D01*
X1565097Y16916450D01*
X1567688Y16911726D01*
X1570634Y16907408D01*
X1573936Y16903547D01*
X1577543Y16900093D01*
X1581454Y16897045D01*
X1585620Y16894454D01*
X1589989Y16892320D01*
X1594561Y16890644D01*
X1599285Y16889425D01*
X1604111Y16888714D01*
X1609090Y16888460D01*
X1614119Y16888714D01*
X1618996Y16889425D01*
X1623771Y16890644D01*
X1628343Y16892320D01*
X1632762Y16894454D01*
X1636928Y16897045D01*
X1640839Y16900093D01*
X1644446Y16903547D01*
X1647748Y16907408D01*
X1650746Y16911726D01*
X1653336Y16916450D01*
X1655521Y16921581D01*
X1657299Y16927068D01*
X1658569Y16932960D01*
X1659382Y16939209D01*
X1659636Y16945864D01*
X1659382Y16952518D01*
X1658569Y16958818D01*
X1657299Y16964761D01*
X1655521Y16970298D01*
X1653336Y16975429D01*
X1650746Y16980204D01*
X1647748Y16984522D01*
X1644446Y16988434D01*
X1640839Y16991888D01*
X1636928Y16994936D01*
X1632762Y16997527D01*
X1628343Y16999661D01*
X1623771Y17001337D01*
X1618996Y17002556D01*
X1614119Y17003268D01*
G37*
G36*
X1729993Y17003522D02*
G01*
X1725320Y17003268D01*
X1720646Y17002506D01*
X1716125Y17001236D01*
X1711706Y16999508D01*
X1707489Y16997324D01*
X1703425Y16994632D01*
X1699615Y16991533D01*
X1696059Y16988028D01*
X1692808Y16984065D01*
X1689862Y16979747D01*
X1687271Y16974972D01*
X1685086Y16969892D01*
X1683359Y16964406D01*
X1682038Y16958564D01*
X1681505Y16954500D01*
X1697228Y16954500D01*
X1698650Y16962424D01*
X1701088Y16969486D01*
X1704390Y16975582D01*
X1708505Y16980662D01*
X1713280Y16984726D01*
X1718564Y16987672D01*
X1724253Y16989450D01*
X1730248Y16990060D01*
X1736598Y16989501D01*
X1742186Y16987774D01*
X1747062Y16984980D01*
X1751126Y16981068D01*
X1754378Y16976039D01*
X1756765Y16969892D01*
X1758188Y16962729D01*
X1758696Y16954500D01*
X1681505Y16954500D01*
X1681225Y16952366D01*
X1680972Y16945864D01*
X1681225Y16939260D01*
X1682038Y16933062D01*
X1683308Y16927169D01*
X1685086Y16921683D01*
X1687271Y16916552D01*
X1689862Y16911828D01*
X1692859Y16907560D01*
X1696262Y16903649D01*
X1699920Y16900144D01*
X1703933Y16897096D01*
X1708251Y16894505D01*
X1712772Y16892371D01*
X1717598Y16890644D01*
X1722577Y16889425D01*
X1727707Y16888714D01*
X1733042Y16888460D01*
X1738579Y16888714D01*
X1743760Y16889374D01*
X1748586Y16890390D01*
X1753158Y16891762D01*
X1757476Y16893438D01*
X1761540Y16895318D01*
X1769110Y16899636D01*
X1763014Y16910558D01*
X1756765Y16906798D01*
X1750110Y16904004D01*
X1742897Y16902277D01*
X1735074Y16901668D01*
X1729739Y16902023D01*
X1724761Y16902988D01*
X1720138Y16904563D01*
X1715820Y16906798D01*
X1711960Y16909542D01*
X1708454Y16912844D01*
X1705406Y16916654D01*
X1702816Y16920921D01*
X1700733Y16925645D01*
X1699107Y16930827D01*
X1698040Y16936364D01*
X1697482Y16942308D01*
X1772412Y16942308D01*
X1773224Y16946778D01*
X1773428Y16952214D01*
X1773072Y16959884D01*
X1772107Y16967047D01*
X1770481Y16973600D01*
X1768246Y16979646D01*
X1765401Y16985030D01*
X1761998Y16989755D01*
X1757984Y16993870D01*
X1753463Y16997273D01*
X1748332Y16999966D01*
X1742744Y17001947D01*
X1736598Y17003115D01*
G37*
M02*
